<?xml version="1.0" encoding="UTF-8" standalone="no"?>
<!DOCTYPE svg PUBLIC "-//W3C//DTD SVG 1.1//EN"
 "http://www.w3.org/Graphics/SVG/1.1/DTD/svg11.dtd">
<!-- Generated by graphviz version 7.1.0 (20230121.1956)
 -->
<!-- Pages: 1 -->
<svg width="146pt" height="136pt"
 viewBox="0.00 0.00 146.00 136.00" xmlns="http://www.w3.org/2000/svg" xmlns:xlink="http://www.w3.org/1999/xlink">
<g id="graph0" class="graph" transform="scale(1 1) rotate(0) translate(4 132)">
<polygon fill="white" stroke="none" points="-4,4 -4,-132 142,-132 142,4 -4,4"/>
<g id="clust1" class="cluster">
<title>cluster~</title>
<path fill="none" stroke="black" stroke-width="2.6" d="M20,-8C20,-8 118,-8 118,-8 124,-8 130,-14 130,-20 130,-20 130,-108 130,-108 130,-114 124,-120 118,-120 118,-120 20,-120 20,-120 14,-120 8,-114 8,-108 8,-108 8,-20 8,-20 8,-14 14,-8 20,-8"/>
<text text-anchor="middle" x="69" y="-105.6" font-family="Arial Black" font-size="13.00">flutter_automaton</text>
</g>
<g id="clust2" class="cluster">
<title>cluster~/lib</title>
<path fill="none" stroke="black" stroke-width="2.6" d="M46,-16C46,-16 92,-16 92,-16 98,-16 104,-22 104,-28 104,-28 104,-78 104,-78 104,-84 98,-90 92,-90 92,-90 46,-90 46,-90 40,-90 34,-84 34,-78 34,-78 34,-28 34,-28 34,-22 40,-16 46,-16"/>
<text text-anchor="middle" x="69" y="-75.6" font-family="Arial Black" font-size="13.00">lib</text>
</g>
<!-- /lib/main.dart -->
<g id="node1" class="node">
<title>/lib/main.dart</title>
<path fill="Lavender" stroke="black" stroke-width="1.3" d="M84,-60C84,-60 54,-60 54,-60 48,-60 42,-54 42,-48 42,-48 42,-36 42,-36 42,-30 48,-24 54,-24 54,-24 84,-24 84,-24 90,-24 96,-30 96,-36 96,-36 96,-48 96,-48 96,-54 90,-60 84,-60"/>
<text text-anchor="middle" x="69" y="-38.5" font-family="Arial" font-size="15.00">main</text>
</g>
</g>
</svg>
