<?xml version="1.0" encoding="UTF-8" standalone="no"?>
<!DOCTYPE svg PUBLIC "-//W3C//DTD SVG 1.1//EN"
 "http://www.w3.org/Graphics/SVG/1.1/DTD/svg11.dtd">
<!-- Generated by graphviz version 7.1.0 (20230121.1956)
 -->
<!-- Pages: 1 -->
<svg width="2932pt" height="534pt"
 viewBox="0.00 0.00 2932.00 534.00" xmlns="http://www.w3.org/2000/svg" xmlns:xlink="http://www.w3.org/1999/xlink">
<g id="graph0" class="graph" transform="scale(1 1) rotate(0) translate(4 530)">
<polygon fill="white" stroke="none" points="-4,4 -4,-530 2928,-530 2928,4 -4,4"/>
<g id="clust1" class="cluster">
<title>cluster~</title>
<path fill="none" stroke="black" stroke-width="2.6" d="M20,-8C20,-8 2904,-8 2904,-8 2910,-8 2916,-14 2916,-20 2916,-20 2916,-506 2916,-506 2916,-512 2910,-518 2904,-518 2904,-518 20,-518 20,-518 14,-518 8,-512 8,-506 8,-506 8,-20 8,-20 8,-14 14,-8 20,-8"/>
<text text-anchor="middle" x="1462" y="-503.6" font-family="Arial Black" font-size="13.00">flutter_automaton</text>
</g>
<g id="clust3" class="cluster">
<title>cluster~/libraries</title>
<path fill="none" stroke="black" stroke-width="2.6" d="M106,-16C106,-16 2896,-16 2896,-16 2902,-16 2908,-22 2908,-28 2908,-28 2908,-476 2908,-476 2908,-482 2902,-488 2896,-488 2896,-488 106,-488 106,-488 100,-488 94,-482 94,-476 94,-476 94,-28 94,-28 94,-22 100,-16 106,-16"/>
<text text-anchor="middle" x="1501" y="-473.6" font-family="Arial Black" font-size="13.00">libraries</text>
</g>
<g id="clust4" class="cluster">
<title>cluster~/libraries/app_config</title>
<path fill="none" stroke="black" stroke-width="2.6" d="M2716,-24C2716,-24 2888,-24 2888,-24 2894,-24 2900,-30 2900,-36 2900,-36 2900,-356 2900,-356 2900,-362 2894,-368 2888,-368 2888,-368 2716,-368 2716,-368 2710,-368 2704,-362 2704,-356 2704,-356 2704,-36 2704,-36 2704,-30 2710,-24 2716,-24"/>
<text text-anchor="middle" x="2802" y="-353.6" font-family="Arial Black" font-size="13.00">app_config</text>
</g>
<g id="clust5" class="cluster">
<title>cluster~/libraries/app_config/lib</title>
<path fill="none" stroke="black" stroke-width="2.6" d="M2724,-32C2724,-32 2880,-32 2880,-32 2886,-32 2892,-38 2892,-44 2892,-44 2892,-326 2892,-326 2892,-332 2886,-338 2880,-338 2880,-338 2724,-338 2724,-338 2718,-338 2712,-332 2712,-326 2712,-326 2712,-44 2712,-44 2712,-38 2718,-32 2724,-32"/>
<text text-anchor="middle" x="2802" y="-323.6" font-family="Arial Black" font-size="13.00">lib</text>
</g>
<g id="clust6" class="cluster">
<title>cluster~/libraries/app_config/lib/src</title>
<path fill="none" stroke="black" stroke-width="2.6" d="M2732,-40C2732,-40 2872,-40 2872,-40 2878,-40 2884,-46 2884,-52 2884,-52 2884,-212 2884,-212 2884,-218 2878,-224 2872,-224 2872,-224 2732,-224 2732,-224 2726,-224 2720,-218 2720,-212 2720,-212 2720,-52 2720,-52 2720,-46 2726,-40 2732,-40"/>
<text text-anchor="middle" x="2802" y="-209.6" font-family="Arial Black" font-size="13.00">src</text>
</g>
<g id="clust7" class="cluster">
<title>cluster~/libraries/app_config/lib/src/app</title>
<path fill="none" stroke="black" stroke-width="2.6" d="M2740,-48C2740,-48 2864,-48 2864,-48 2870,-48 2876,-54 2876,-60 2876,-60 2876,-182 2876,-182 2876,-188 2870,-194 2864,-194 2864,-194 2740,-194 2740,-194 2734,-194 2728,-188 2728,-182 2728,-182 2728,-60 2728,-60 2728,-54 2734,-48 2740,-48"/>
<text text-anchor="middle" x="2802" y="-179.6" font-family="Arial Black" font-size="13.00">app</text>
</g>
<g id="clust8" class="cluster">
<title>cluster~/libraries/domain</title>
<path fill="none" stroke="black" stroke-width="2.6" d="M1630,-24C1630,-24 2684,-24 2684,-24 2690,-24 2696,-30 2696,-36 2696,-36 2696,-416 2696,-416 2696,-422 2690,-428 2684,-428 2684,-428 1630,-428 1630,-428 1624,-428 1618,-422 1618,-416 1618,-416 1618,-36 1618,-36 1618,-30 1624,-24 1630,-24"/>
<text text-anchor="middle" x="2157" y="-413.6" font-family="Arial Black" font-size="13.00">domain</text>
</g>
<g id="clust9" class="cluster">
<title>cluster~/libraries/domain/entities</title>
<path fill="none" stroke="black" stroke-width="2.6" d="M2548,-32C2548,-32 2676,-32 2676,-32 2682,-32 2688,-38 2688,-44 2688,-44 2688,-356 2688,-356 2688,-362 2682,-368 2676,-368 2676,-368 2548,-368 2548,-368 2542,-368 2536,-362 2536,-356 2536,-356 2536,-44 2536,-44 2536,-38 2542,-32 2548,-32"/>
<text text-anchor="middle" x="2612" y="-353.6" font-family="Arial Black" font-size="13.00">entities</text>
</g>
<g id="clust10" class="cluster">
<title>cluster~/libraries/domain/entities/lib</title>
<path fill="none" stroke="black" stroke-width="2.6" d="M2556,-40C2556,-40 2668,-40 2668,-40 2674,-40 2680,-46 2680,-52 2680,-52 2680,-326 2680,-326 2680,-332 2674,-338 2668,-338 2668,-338 2556,-338 2556,-338 2550,-338 2544,-332 2544,-326 2544,-326 2544,-52 2544,-52 2544,-46 2550,-40 2556,-40"/>
<text text-anchor="middle" x="2612" y="-323.6" font-family="Arial Black" font-size="13.00">lib</text>
</g>
<g id="clust11" class="cluster">
<title>cluster~/libraries/domain/entities/lib/src</title>
<path fill="none" stroke="black" stroke-width="2.6" d="M2564,-48C2564,-48 2660,-48 2660,-48 2666,-48 2672,-54 2672,-60 2672,-60 2672,-182 2672,-182 2672,-188 2666,-194 2660,-194 2660,-194 2564,-194 2564,-194 2558,-194 2552,-188 2552,-182 2552,-182 2552,-60 2552,-60 2552,-54 2558,-48 2564,-48"/>
<text text-anchor="middle" x="2612" y="-179.6" font-family="Arial Black" font-size="13.00">src</text>
</g>
<g id="clust12" class="cluster">
<title>cluster~/libraries/domain/repository_interfaces</title>
<path fill="none" stroke="black" stroke-width="2.6" d="M2178,-256C2178,-256 2516,-256 2516,-256 2522,-256 2528,-262 2528,-268 2528,-268 2528,-356 2528,-356 2528,-362 2522,-368 2516,-368 2516,-368 2178,-368 2178,-368 2172,-368 2166,-362 2166,-356 2166,-356 2166,-268 2166,-268 2166,-262 2172,-256 2178,-256"/>
<text text-anchor="middle" x="2347" y="-353.6" font-family="Arial Black" font-size="13.00">repository_interfaces</text>
</g>
<g id="clust13" class="cluster">
<title>cluster~/libraries/domain/repository_interfaces/lib</title>
<path fill="none" stroke="black" stroke-width="2.6" d="M2186,-264C2186,-264 2508,-264 2508,-264 2514,-264 2520,-270 2520,-276 2520,-276 2520,-326 2520,-326 2520,-332 2514,-338 2508,-338 2508,-338 2186,-338 2186,-338 2180,-338 2174,-332 2174,-326 2174,-326 2174,-276 2174,-276 2174,-270 2180,-264 2186,-264"/>
<text text-anchor="middle" x="2347" y="-323.6" font-family="Arial Black" font-size="13.00">lib</text>
</g>
<g id="clust14" class="cluster">
<title>cluster~/libraries/domain/use_cases</title>
<path fill="none" stroke="black" stroke-width="2.6" d="M1638,-248C1638,-248 2146,-248 2146,-248 2152,-248 2158,-254 2158,-260 2158,-260 2158,-386 2158,-386 2158,-392 2152,-398 2146,-398 2146,-398 1638,-398 1638,-398 1632,-398 1626,-392 1626,-386 1626,-386 1626,-260 1626,-260 1626,-254 1632,-248 1638,-248"/>
<text text-anchor="middle" x="1892" y="-383.6" font-family="Arial Black" font-size="13.00">use_cases</text>
</g>
<g id="clust15" class="cluster">
<title>cluster~/libraries/domain/use_cases/lib</title>
<path fill="none" stroke="black" stroke-width="2.6" d="M1646,-256C1646,-256 2138,-256 2138,-256 2144,-256 2150,-262 2150,-268 2150,-268 2150,-356 2150,-356 2150,-362 2144,-368 2138,-368 2138,-368 1646,-368 1646,-368 1640,-368 1634,-362 1634,-356 1634,-356 1634,-268 1634,-268 1634,-262 1640,-256 1646,-256"/>
<text text-anchor="middle" x="1892" y="-353.6" font-family="Arial Black" font-size="13.00">lib</text>
</g>
<g id="clust16" class="cluster">
<title>cluster~/libraries/domain/use_cases/lib/src</title>
<path fill="none" stroke="black" stroke-width="2.6" d="M1982,-264C1982,-264 2130,-264 2130,-264 2136,-264 2142,-270 2142,-276 2142,-276 2142,-326 2142,-326 2142,-332 2136,-338 2130,-338 2130,-338 1982,-338 1982,-338 1976,-338 1970,-332 1970,-326 1970,-326 1970,-276 1970,-276 1970,-270 1976,-264 1982,-264"/>
<text text-anchor="middle" x="2056" y="-323.6" font-family="Arial Black" font-size="13.00">src</text>
</g>
<g id="clust17" class="cluster">
<title>cluster~/libraries/presentation</title>
<path fill="none" stroke="black" stroke-width="2.6" d="M114,-232C114,-232 1598,-232 1598,-232 1604,-232 1610,-238 1610,-244 1610,-244 1610,-446 1610,-446 1610,-452 1604,-458 1598,-458 1598,-458 114,-458 114,-458 108,-458 102,-452 102,-446 102,-446 102,-244 102,-244 102,-238 108,-232 114,-232"/>
<text text-anchor="middle" x="856" y="-443.6" font-family="Arial Black" font-size="13.00">presentation</text>
</g>
<g id="clust18" class="cluster">
<title>cluster~/libraries/presentation/lib</title>
<path fill="none" stroke="black" stroke-width="2.6" d="M122,-240C122,-240 1590,-240 1590,-240 1596,-240 1602,-246 1602,-252 1602,-252 1602,-416 1602,-416 1602,-422 1596,-428 1590,-428 1590,-428 122,-428 122,-428 116,-428 110,-422 110,-416 110,-416 110,-252 110,-252 110,-246 116,-240 122,-240"/>
<text text-anchor="middle" x="856" y="-413.6" font-family="Arial Black" font-size="13.00">lib</text>
</g>
<g id="clust19" class="cluster">
<title>cluster~/libraries/presentation/lib/automaton</title>
<path fill="none" stroke="black" stroke-width="2.6" d="M130,-248C130,-248 1582,-248 1582,-248 1588,-248 1594,-254 1594,-260 1594,-260 1594,-386 1594,-386 1594,-392 1588,-398 1582,-398 1582,-398 130,-398 130,-398 124,-398 118,-392 118,-386 118,-386 118,-260 118,-260 118,-254 124,-248 130,-248"/>
<text text-anchor="middle" x="856" y="-383.6" font-family="Arial Black" font-size="13.00">automaton</text>
</g>
<g id="clust20" class="cluster">
<title>cluster~/libraries/presentation/lib/automaton/pages</title>
<path fill="none" stroke="black" stroke-width="2.6" d="M1454,-264C1454,-264 1574,-264 1574,-264 1580,-264 1586,-270 1586,-276 1586,-276 1586,-326 1586,-326 1586,-332 1580,-338 1574,-338 1574,-338 1454,-338 1454,-338 1448,-338 1442,-332 1442,-326 1442,-326 1442,-276 1442,-276 1442,-270 1448,-264 1454,-264"/>
<text text-anchor="middle" x="1514" y="-323.6" font-family="Arial Black" font-size="13.00">pages</text>
</g>
<g id="clust21" class="cluster">
<title>cluster~/libraries/presentation/lib/automaton/widgets</title>
<path fill="none" stroke="black" stroke-width="2.6" d="M138,-256C138,-256 1422,-256 1422,-256 1428,-256 1434,-262 1434,-268 1434,-268 1434,-356 1434,-356 1434,-362 1428,-368 1422,-368 1422,-368 138,-368 138,-368 132,-368 126,-362 126,-356 126,-356 126,-268 126,-268 126,-262 132,-256 138,-256"/>
<text text-anchor="middle" x="780" y="-353.6" font-family="Arial Black" font-size="13.00">widgets</text>
</g>
<g id="clust22" class="cluster">
<title>cluster~/libraries/presentation/lib/automaton/widgets/head</title>
<path fill="none" stroke="black" stroke-width="2.6" d="M862,-264C862,-264 1414,-264 1414,-264 1420,-264 1426,-270 1426,-276 1426,-276 1426,-326 1426,-326 1426,-332 1420,-338 1414,-338 1414,-338 862,-338 862,-338 856,-338 850,-332 850,-326 850,-326 850,-276 850,-276 850,-270 856,-264 862,-264"/>
<text text-anchor="middle" x="1138" y="-323.6" font-family="Arial Black" font-size="13.00">head</text>
</g>
<g id="clust2" class="cluster">
<title>cluster~/lib</title>
<path fill="none" stroke="black" stroke-width="2.6" d="M28,-264C28,-264 74,-264 74,-264 80,-264 86,-270 86,-276 86,-276 86,-326 86,-326 86,-332 80,-338 74,-338 74,-338 28,-338 28,-338 22,-338 16,-332 16,-326 16,-326 16,-276 16,-276 16,-270 22,-264 28,-264"/>
<text text-anchor="middle" x="51" y="-323.6" font-family="Arial Black" font-size="13.00">lib</text>
</g>
<!-- /lib/main.dart -->
<g id="node1" class="node">
<title>/lib/main.dart</title>
<path fill="Lavender" stroke="black" stroke-width="1.3" d="M66,-308C66,-308 36,-308 36,-308 30,-308 24,-302 24,-296 24,-296 24,-284 24,-284 24,-278 30,-272 36,-272 36,-272 66,-272 66,-272 72,-272 78,-278 78,-284 78,-284 78,-296 78,-296 78,-302 72,-308 66,-308"/>
<text text-anchor="middle" x="51" y="-286.5" font-family="Arial" font-size="15.00">main</text>
</g>
<!-- /libraries/app_config/lib/app_config.dart -->
<g id="node2" class="node">
<title>/libraries/app_config/lib/app_config.dart</title>
<path fill="Lavender" stroke="black" stroke-width="1.3" d="M2834.5,-308C2834.5,-308 2769.5,-308 2769.5,-308 2763.5,-308 2757.5,-302 2757.5,-296 2757.5,-296 2757.5,-284 2757.5,-284 2757.5,-278 2763.5,-272 2769.5,-272 2769.5,-272 2834.5,-272 2834.5,-272 2840.5,-272 2846.5,-278 2846.5,-284 2846.5,-284 2846.5,-296 2846.5,-296 2846.5,-302 2840.5,-308 2834.5,-308"/>
<text text-anchor="middle" x="2802" y="-286.5" font-family="Arial" font-size="15.00">app_config</text>
</g>
<!-- /libraries/app_config/lib/src/app/app_main.dart -->
<g id="node3" class="node">
<title>/libraries/app_config/lib/src/app/app_main.dart</title>
<path fill="Lavender" stroke="black" stroke-width="1.3" d="M2830,-164C2830,-164 2774,-164 2774,-164 2768,-164 2762,-158 2762,-152 2762,-152 2762,-140 2762,-140 2762,-134 2768,-128 2774,-128 2774,-128 2830,-128 2830,-128 2836,-128 2842,-134 2842,-140 2842,-140 2842,-152 2842,-152 2842,-158 2836,-164 2830,-164"/>
<text text-anchor="middle" x="2802" y="-142.5" font-family="Arial" font-size="15.00">app_main</text>
</g>
<!-- /libraries/app_config/lib/app_config.dart&#45;&gt;/libraries/app_config/lib/src/app/app_main.dart -->
<g id="edge1" class="edge">
<title>/libraries/app_config/lib/app_config.dart&#45;&gt;/libraries/app_config/lib/src/app/app_main.dart</title>
<path fill="none" stroke="black" stroke-width="1.3" stroke-dasharray="5,2" d="M2802,-271.59C2802,-247.72 2802,-204.53 2802,-175.8"/>
<polygon fill="black" stroke="black" stroke-width="1.3" points="2805.5,-176.08 2802,-166.08 2798.5,-176.08 2805.5,-176.08"/>
</g>
<!-- /libraries/app_config/lib/src/app/main_app_widget.dart -->
<g id="node4" class="node">
<title>/libraries/app_config/lib/src/app/main_app_widget.dart</title>
<path fill="Lavender" stroke="black" stroke-width="1.3" d="M2856,-92C2856,-92 2748,-92 2748,-92 2742,-92 2736,-86 2736,-80 2736,-80 2736,-68 2736,-68 2736,-62 2742,-56 2748,-56 2748,-56 2856,-56 2856,-56 2862,-56 2868,-62 2868,-68 2868,-68 2868,-80 2868,-80 2868,-86 2862,-92 2856,-92"/>
<text text-anchor="middle" x="2802" y="-70.5" font-family="Arial" font-size="15.00">main_app_widget</text>
</g>
<!-- /libraries/app_config/lib/src/app/app_main.dart&#45;&gt;/libraries/app_config/lib/src/app/main_app_widget.dart -->
<g id="edge2" class="edge">
<title>/libraries/app_config/lib/src/app/app_main.dart&#45;&gt;/libraries/app_config/lib/src/app/main_app_widget.dart</title>
<path fill="none" stroke="black" stroke-width="1.3" d="M2802,-127.7C2802,-120.49 2802,-111.93 2802,-103.82"/>
<polygon fill="black" stroke="black" stroke-width="1.3" points="2805.5,-104.07 2802,-94.07 2798.5,-104.07 2805.5,-104.07"/>
</g>
<!-- /libraries/domain/entities/lib/entities.dart -->
<g id="node5" class="node">
<title>/libraries/domain/entities/lib/entities.dart</title>
<path fill="Lavender" stroke="black" stroke-width="1.3" d="M2645.5,-308C2645.5,-308 2606.5,-308 2606.5,-308 2600.5,-308 2594.5,-302 2594.5,-296 2594.5,-296 2594.5,-284 2594.5,-284 2594.5,-278 2600.5,-272 2606.5,-272 2606.5,-272 2645.5,-272 2645.5,-272 2651.5,-272 2657.5,-278 2657.5,-284 2657.5,-284 2657.5,-296 2657.5,-296 2657.5,-302 2651.5,-308 2645.5,-308"/>
<text text-anchor="middle" x="2626" y="-286.5" font-family="Arial" font-size="15.00">entities</text>
</g>
<!-- /libraries/domain/entities/lib/src/entity.dart -->
<g id="node6" class="node">
<title>/libraries/domain/entities/lib/src/entity.dart</title>
<path fill="Lavender" stroke="black" stroke-width="1.3" d="M2627,-164C2627,-164 2597,-164 2597,-164 2591,-164 2585,-158 2585,-152 2585,-152 2585,-140 2585,-140 2585,-134 2591,-128 2597,-128 2597,-128 2627,-128 2627,-128 2633,-128 2639,-134 2639,-140 2639,-140 2639,-152 2639,-152 2639,-158 2633,-164 2627,-164"/>
<text text-anchor="middle" x="2612" y="-142.5" font-family="Arial" font-size="15.00">entity</text>
</g>
<!-- /libraries/domain/entities/lib/entities.dart&#45;&gt;/libraries/domain/entities/lib/src/entity.dart -->
<g id="edge3" class="edge">
<title>/libraries/domain/entities/lib/entities.dart&#45;&gt;/libraries/domain/entities/lib/src/entity.dart</title>
<path fill="none" stroke="black" stroke-width="1.3" stroke-dasharray="5,2" d="M2624.28,-271.59C2621.93,-247.72 2617.67,-204.53 2614.84,-175.8"/>
<polygon fill="black" stroke="black" stroke-width="1.3" points="2618.34,-175.68 2613.88,-166.07 2611.38,-176.36 2618.34,-175.68"/>
</g>
<!-- /libraries/domain/entities/lib/src/named_entity.dart -->
<g id="node7" class="node">
<title>/libraries/domain/entities/lib/src/named_entity.dart</title>
<path fill="Lavender" stroke="black" stroke-width="1.3" d="M2652,-92C2652,-92 2572,-92 2572,-92 2566,-92 2560,-86 2560,-80 2560,-80 2560,-68 2560,-68 2560,-62 2566,-56 2572,-56 2572,-56 2652,-56 2652,-56 2658,-56 2664,-62 2664,-68 2664,-68 2664,-80 2664,-80 2664,-86 2658,-92 2652,-92"/>
<text text-anchor="middle" x="2612" y="-70.5" font-family="Arial" font-size="15.00">named_entity</text>
</g>
<!-- /libraries/domain/entities/lib/entities.dart&#45;&gt;/libraries/domain/entities/lib/src/named_entity.dart -->
<g id="edge4" class="edge">
<title>/libraries/domain/entities/lib/entities.dart&#45;&gt;/libraries/domain/entities/lib/src/named_entity.dart</title>
<path fill="none" stroke="black" stroke-width="1.3" stroke-dasharray="5,2" d="M2633.57,-271.74C2638.78,-258.87 2645.25,-240.69 2648,-224 2654.93,-181.9 2660.54,-168.78 2648,-128 2645.15,-118.73 2640.06,-109.63 2634.6,-101.65"/>
<polygon fill="black" stroke="black" stroke-width="1.3" points="2637.55,-99.76 2628.78,-93.81 2631.93,-103.92 2637.55,-99.76"/>
</g>
<!-- /libraries/domain/entities/lib/src/entity.dart&#45;&gt;/libraries/domain/entities/lib/src/named_entity.dart -->
<g id="edge5" class="edge">
<title>/libraries/domain/entities/lib/src/entity.dart&#45;&gt;/libraries/domain/entities/lib/src/named_entity.dart</title>
<path fill="none" stroke="black" stroke-width="1.3" d="M2606.08,-127.7C2605.34,-120.49 2605.09,-111.93 2605.34,-103.82"/>
<polygon fill="black" stroke="black" stroke-width="1.3" points="2608.82,-104.27 2605.98,-94.07 2601.84,-103.82 2608.82,-104.27"/>
</g>
<!-- /libraries/domain/entities/lib/src/named_entity.dart&#45;&gt;/libraries/domain/entities/lib/src/entity.dart -->
<g id="edge6" class="edge">
<title>/libraries/domain/entities/lib/src/named_entity.dart&#45;&gt;/libraries/domain/entities/lib/src/entity.dart</title>
<path fill="none" stroke="black" stroke-width="1.3" d="M2617.9,-92.1C2618.65,-99.28 2618.9,-107.84 2618.66,-115.95"/>
<polygon fill="black" stroke="black" stroke-width="1.3" points="2615.18,-115.53 2618.04,-125.73 2622.17,-115.98 2615.18,-115.53"/>
</g>
<!-- /libraries/domain/repository_interfaces/lib/repository1_interface.dart -->
<g id="node8" class="node">
<title>/libraries/domain/repository_interfaces/lib/repository1_interface.dart</title>
<path fill="Lavender" stroke="black" stroke-width="1.3" d="M2500,-308C2500,-308 2368,-308 2368,-308 2362,-308 2356,-302 2356,-296 2356,-296 2356,-284 2356,-284 2356,-278 2362,-272 2368,-272 2368,-272 2500,-272 2500,-272 2506,-272 2512,-278 2512,-284 2512,-284 2512,-296 2512,-296 2512,-302 2506,-308 2500,-308"/>
<text text-anchor="middle" x="2434" y="-286.5" font-family="Arial" font-size="15.00">repository1_interface</text>
</g>
<!-- /libraries/domain/repository_interfaces/lib/repository2_interface.dart -->
<g id="node9" class="node">
<title>/libraries/domain/repository_interfaces/lib/repository2_interface.dart</title>
<path fill="Lavender" stroke="black" stroke-width="1.3" d="M2326,-308C2326,-308 2194,-308 2194,-308 2188,-308 2182,-302 2182,-296 2182,-296 2182,-284 2182,-284 2182,-278 2188,-272 2194,-272 2194,-272 2326,-272 2326,-272 2332,-272 2338,-278 2338,-284 2338,-284 2338,-296 2338,-296 2338,-302 2332,-308 2326,-308"/>
<text text-anchor="middle" x="2260" y="-286.5" font-family="Arial" font-size="15.00">repository2_interface</text>
</g>
<!-- /libraries/domain/use_cases/lib/feature1_use_cases.dart -->
<g id="node10" class="node">
<title>/libraries/domain/use_cases/lib/feature1_use_cases.dart</title>
<path fill="Lavender" stroke="black" stroke-width="1.3" d="M1948,-308C1948,-308 1822,-308 1822,-308 1816,-308 1810,-302 1810,-296 1810,-296 1810,-284 1810,-284 1810,-278 1816,-272 1822,-272 1822,-272 1948,-272 1948,-272 1954,-272 1960,-278 1960,-284 1960,-284 1960,-296 1960,-296 1960,-302 1954,-308 1948,-308"/>
<text text-anchor="middle" x="1885" y="-286.5" font-family="Arial" font-size="15.00">feature1_use_cases</text>
</g>
<!-- /libraries/domain/use_cases/lib/feature2_use_cases.dart -->
<g id="node11" class="node">
<title>/libraries/domain/use_cases/lib/feature2_use_cases.dart</title>
<path fill="Lavender" stroke="black" stroke-width="1.3" d="M1780,-308C1780,-308 1654,-308 1654,-308 1648,-308 1642,-302 1642,-296 1642,-296 1642,-284 1642,-284 1642,-278 1648,-272 1654,-272 1654,-272 1780,-272 1780,-272 1786,-272 1792,-278 1792,-284 1792,-284 1792,-296 1792,-296 1792,-302 1786,-308 1780,-308"/>
<text text-anchor="middle" x="1717" y="-286.5" font-family="Arial" font-size="15.00">feature2_use_cases</text>
</g>
<!-- /libraries/domain/use_cases/lib/src/placeholder_usecase.dart -->
<g id="node12" class="node">
<title>/libraries/domain/use_cases/lib/src/placeholder_usecase.dart</title>
<path fill="Lavender" stroke="black" stroke-width="1.3" d="M2121.5,-308C2121.5,-308 1990.5,-308 1990.5,-308 1984.5,-308 1978.5,-302 1978.5,-296 1978.5,-296 1978.5,-284 1978.5,-284 1978.5,-278 1984.5,-272 1990.5,-272 1990.5,-272 2121.5,-272 2121.5,-272 2127.5,-272 2133.5,-278 2133.5,-284 2133.5,-284 2133.5,-296 2133.5,-296 2133.5,-302 2127.5,-308 2121.5,-308"/>
<text text-anchor="middle" x="2056" y="-286.5" font-family="Arial" font-size="15.00">placeholder_usecase</text>
</g>
<!-- /libraries/presentation/lib/automaton/pages/automaton_page.dart -->
<g id="node13" class="node">
<title>/libraries/presentation/lib/automaton/pages/automaton_page.dart</title>
<path fill="Lavender" stroke="black" stroke-width="1.3" d="M1565.5,-308C1565.5,-308 1462.5,-308 1462.5,-308 1456.5,-308 1450.5,-302 1450.5,-296 1450.5,-296 1450.5,-284 1450.5,-284 1450.5,-278 1456.5,-272 1462.5,-272 1462.5,-272 1565.5,-272 1565.5,-272 1571.5,-272 1577.5,-278 1577.5,-284 1577.5,-284 1577.5,-296 1577.5,-296 1577.5,-302 1571.5,-308 1565.5,-308"/>
<text text-anchor="middle" x="1514" y="-286.5" font-family="Arial" font-size="15.00">automaton_page</text>
</g>
<!-- /libraries/presentation/lib/automaton/widgets/arm.dart -->
<g id="node14" class="node">
<title>/libraries/presentation/lib/automaton/widgets/arm.dart</title>
<path fill="Lavender" stroke="black" stroke-width="1.3" d="M828,-308C828,-308 798,-308 798,-308 792,-308 786,-302 786,-296 786,-296 786,-284 786,-284 786,-278 792,-272 798,-272 798,-272 828,-272 828,-272 834,-272 840,-278 840,-284 840,-284 840,-296 840,-296 840,-302 834,-308 828,-308"/>
<text text-anchor="middle" x="813" y="-286.5" font-family="Arial" font-size="15.00">arm</text>
</g>
<!-- /libraries/presentation/lib/automaton/widgets/body.dart -->
<g id="node15" class="node">
<title>/libraries/presentation/lib/automaton/widgets/body.dart</title>
<path fill="Lavender" stroke="black" stroke-width="1.3" d="M756,-308C756,-308 726,-308 726,-308 720,-308 714,-302 714,-296 714,-296 714,-284 714,-284 714,-278 720,-272 726,-272 726,-272 756,-272 756,-272 762,-272 768,-278 768,-284 768,-284 768,-296 768,-296 768,-302 762,-308 756,-308"/>
<text text-anchor="middle" x="741" y="-286.5" font-family="Arial" font-size="15.00">body</text>
</g>
<!-- /libraries/presentation/lib/automaton/widgets/head/animated_face.dart -->
<g id="node16" class="node">
<title>/libraries/presentation/lib/automaton/widgets/head/animated_face.dart</title>
<path fill="Lavender" stroke="black" stroke-width="1.3" d="M1405.5,-308C1405.5,-308 1316.5,-308 1316.5,-308 1310.5,-308 1304.5,-302 1304.5,-296 1304.5,-296 1304.5,-284 1304.5,-284 1304.5,-278 1310.5,-272 1316.5,-272 1316.5,-272 1405.5,-272 1405.5,-272 1411.5,-272 1417.5,-278 1417.5,-284 1417.5,-284 1417.5,-296 1417.5,-296 1417.5,-302 1411.5,-308 1405.5,-308"/>
<text text-anchor="middle" x="1361" y="-286.5" font-family="Arial" font-size="15.00">animated_face</text>
</g>
<!-- /libraries/presentation/lib/automaton/widgets/head/ear.dart -->
<g id="node17" class="node">
<title>/libraries/presentation/lib/automaton/widgets/head/ear.dart</title>
<path fill="Lavender" stroke="black" stroke-width="1.3" d="M1274,-308C1274,-308 1244,-308 1244,-308 1238,-308 1232,-302 1232,-296 1232,-296 1232,-284 1232,-284 1232,-278 1238,-272 1244,-272 1244,-272 1274,-272 1274,-272 1280,-272 1286,-278 1286,-284 1286,-284 1286,-296 1286,-296 1286,-302 1280,-308 1274,-308"/>
<text text-anchor="middle" x="1259" y="-286.5" font-family="Arial" font-size="15.00">ear</text>
</g>
<!-- /libraries/presentation/lib/automaton/widgets/head/emoji_face.dart -->
<g id="node18" class="node">
<title>/libraries/presentation/lib/automaton/widgets/head/emoji_face.dart</title>
<path fill="Lavender" stroke="black" stroke-width="1.3" d="M1202,-308C1202,-308 1138,-308 1138,-308 1132,-308 1126,-302 1126,-296 1126,-296 1126,-284 1126,-284 1126,-278 1132,-272 1138,-272 1138,-272 1202,-272 1202,-272 1208,-272 1214,-278 1214,-284 1214,-284 1214,-296 1214,-296 1214,-302 1208,-308 1202,-308"/>
<text text-anchor="middle" x="1170" y="-286.5" font-family="Arial" font-size="15.00">emoji_face</text>
</g>
<!-- /libraries/presentation/lib/automaton/widgets/head/speech_bubble.dart -->
<g id="node19" class="node">
<title>/libraries/presentation/lib/automaton/widgets/head/speech_bubble.dart</title>
<path fill="Lavender" stroke="black" stroke-width="1.3" d="M1096,-308C1096,-308 1004,-308 1004,-308 998,-308 992,-302 992,-296 992,-296 992,-284 992,-284 992,-278 998,-272 1004,-272 1004,-272 1096,-272 1096,-272 1102,-272 1108,-278 1108,-284 1108,-284 1108,-296 1108,-296 1108,-302 1102,-308 1096,-308"/>
<text text-anchor="middle" x="1050" y="-286.5" font-family="Arial" font-size="15.00">speech_bubble</text>
</g>
<!-- /libraries/presentation/lib/automaton/widgets/head/thought_bubble.dart -->
<g id="node20" class="node">
<title>/libraries/presentation/lib/automaton/widgets/head/thought_bubble.dart</title>
<path fill="Lavender" stroke="black" stroke-width="1.3" d="M962,-308C962,-308 870,-308 870,-308 864,-308 858,-302 858,-296 858,-296 858,-284 858,-284 858,-278 864,-272 870,-272 870,-272 962,-272 962,-272 968,-272 974,-278 974,-284 974,-284 974,-296 974,-296 974,-302 968,-308 962,-308"/>
<text text-anchor="middle" x="916" y="-286.5" font-family="Arial" font-size="15.00">thought_bubble</text>
</g>
<!-- /libraries/presentation/lib/automaton/widgets/head.dart -->
<g id="node21" class="node">
<title>/libraries/presentation/lib/automaton/widgets/head.dart</title>
<path fill="Lavender" stroke="black" stroke-width="1.3" d="M684,-308C684,-308 654,-308 654,-308 648,-308 642,-302 642,-296 642,-296 642,-284 642,-284 642,-278 648,-272 654,-272 654,-272 684,-272 684,-272 690,-272 696,-278 696,-284 696,-284 696,-296 696,-296 696,-302 690,-308 684,-308"/>
<text text-anchor="middle" x="669" y="-286.5" font-family="Arial" font-size="15.00">head</text>
</g>
<!-- /libraries/presentation/lib/automaton/widgets/heart.dart -->
<g id="node22" class="node">
<title>/libraries/presentation/lib/automaton/widgets/heart.dart</title>
<path fill="Lavender" stroke="black" stroke-width="1.3" d="M612,-308C612,-308 582,-308 582,-308 576,-308 570,-302 570,-296 570,-296 570,-284 570,-284 570,-278 576,-272 582,-272 582,-272 612,-272 612,-272 618,-272 624,-278 624,-284 624,-284 624,-296 624,-296 624,-302 618,-308 612,-308"/>
<text text-anchor="middle" x="597" y="-286.5" font-family="Arial" font-size="15.00">heart</text>
</g>
<!-- /libraries/presentation/lib/automaton/widgets/hips.dart -->
<g id="node23" class="node">
<title>/libraries/presentation/lib/automaton/widgets/hips.dart</title>
<path fill="Lavender" stroke="black" stroke-width="1.3" d="M540,-308C540,-308 510,-308 510,-308 504,-308 498,-302 498,-296 498,-296 498,-284 498,-284 498,-278 504,-272 510,-272 510,-272 540,-272 540,-272 546,-272 552,-278 552,-284 552,-284 552,-296 552,-296 552,-302 546,-308 540,-308"/>
<text text-anchor="middle" x="525" y="-286.5" font-family="Arial" font-size="15.00">hips</text>
</g>
<!-- /libraries/presentation/lib/automaton/widgets/leg.dart -->
<g id="node24" class="node">
<title>/libraries/presentation/lib/automaton/widgets/leg.dart</title>
<path fill="Lavender" stroke="black" stroke-width="1.3" d="M468,-308C468,-308 438,-308 438,-308 432,-308 426,-302 426,-296 426,-296 426,-284 426,-284 426,-278 432,-272 438,-272 438,-272 468,-272 468,-272 474,-272 480,-278 480,-284 480,-284 480,-296 480,-296 480,-302 474,-308 468,-308"/>
<text text-anchor="middle" x="453" y="-286.5" font-family="Arial" font-size="15.00">leg</text>
</g>
<!-- /libraries/presentation/lib/automaton/widgets/neck.dart -->
<g id="node25" class="node">
<title>/libraries/presentation/lib/automaton/widgets/neck.dart</title>
<path fill="Lavender" stroke="black" stroke-width="1.3" d="M396,-308C396,-308 366,-308 366,-308 360,-308 354,-302 354,-296 354,-296 354,-284 354,-284 354,-278 360,-272 366,-272 366,-272 396,-272 396,-272 402,-272 408,-278 408,-284 408,-284 408,-296 408,-296 408,-302 402,-308 396,-308"/>
<text text-anchor="middle" x="381" y="-286.5" font-family="Arial" font-size="15.00">neck</text>
</g>
<!-- /libraries/presentation/lib/automaton/widgets/status_connector.dart -->
<g id="node26" class="node">
<title>/libraries/presentation/lib/automaton/widgets/status_connector.dart</title>
<path fill="Lavender" stroke="black" stroke-width="1.3" d="M323.5,-308C323.5,-308 218.5,-308 218.5,-308 212.5,-308 206.5,-302 206.5,-296 206.5,-296 206.5,-284 206.5,-284 206.5,-278 212.5,-272 218.5,-272 218.5,-272 323.5,-272 323.5,-272 329.5,-272 335.5,-278 335.5,-284 335.5,-284 335.5,-296 335.5,-296 335.5,-302 329.5,-308 323.5,-308"/>
<text text-anchor="middle" x="271" y="-286.5" font-family="Arial" font-size="15.00">status_connector</text>
</g>
<!-- /libraries/presentation/lib/automaton/widgets/torso.dart -->
<g id="node27" class="node">
<title>/libraries/presentation/lib/automaton/widgets/torso.dart</title>
<path fill="Lavender" stroke="black" stroke-width="1.3" d="M176,-308C176,-308 146,-308 146,-308 140,-308 134,-302 134,-296 134,-296 134,-284 134,-284 134,-278 140,-272 146,-272 146,-272 176,-272 176,-272 182,-272 188,-278 188,-284 188,-284 188,-296 188,-296 188,-302 182,-308 176,-308"/>
<text text-anchor="middle" x="161" y="-286.5" font-family="Arial" font-size="15.00">torso</text>
</g>
</g>
</svg>
