<?xml version="1.0" encoding="UTF-8" standalone="no"?>
<!DOCTYPE svg PUBLIC "-//W3C//DTD SVG 1.1//EN"
 "http://www.w3.org/Graphics/SVG/1.1/DTD/svg11.dtd">
<!-- Generated by graphviz version 7.1.0 (20230121.1956)
 -->
<!-- Pages: 1 -->
<svg width="5227pt" height="814pt"
 viewBox="0.00 0.00 5227.00 814.38" xmlns="http://www.w3.org/2000/svg" xmlns:xlink="http://www.w3.org/1999/xlink">
<g id="graph0" class="graph" transform="scale(1 1) rotate(0) translate(4 810.38)">
<polygon fill="white" stroke="none" points="-4,4 -4,-810.38 5223,-810.38 5223,4 -4,4"/>
<g id="clust1" class="cluster">
<title>cluster~</title>
<path fill="none" stroke="black" stroke-width="2.6" d="M20,-8C20,-8 5063,-8 5063,-8 5069,-8 5075,-14 5075,-20 5075,-20 5075,-786.38 5075,-786.38 5075,-792.38 5069,-798.38 5063,-798.38 5063,-798.38 20,-798.38 20,-798.38 14,-798.38 8,-792.38 8,-786.38 8,-786.38 8,-20 8,-20 8,-14 14,-8 20,-8"/>
<text text-anchor="middle" x="2541.5" y="-783.98" font-family="Arial Black" font-size="13.00">flutter_automaton</text>
</g>
<g id="clust2" class="cluster">
<title>cluster~/lib</title>
<path fill="none" stroke="black" stroke-width="2.6" d="M4885,-412C4885,-412 5055,-412 5055,-412 5061,-412 5067,-418 5067,-424 5067,-424 5067,-606.38 5067,-606.38 5067,-612.38 5061,-618.38 5055,-618.38 5055,-618.38 4885,-618.38 4885,-618.38 4879,-618.38 4873,-612.38 4873,-606.38 4873,-606.38 4873,-424 4873,-424 4873,-418 4879,-412 4885,-412"/>
<text text-anchor="middle" x="4970" y="-603.98" font-family="Arial Black" font-size="13.00">lib</text>
</g>
<g id="clust3" class="cluster">
<title>cluster~/libraries</title>
<path fill="none" stroke="black" stroke-width="2.6" d="M28,-16C28,-16 4853,-16 4853,-16 4859,-16 4865,-22 4865,-28 4865,-28 4865,-756.38 4865,-756.38 4865,-762.38 4859,-768.38 4853,-768.38 4853,-768.38 28,-768.38 28,-768.38 22,-768.38 16,-762.38 16,-756.38 16,-756.38 16,-28 16,-28 16,-22 22,-16 28,-16"/>
<text text-anchor="middle" x="2440.5" y="-753.98" font-family="Arial Black" font-size="13.00">libraries</text>
</g>
<g id="clust4" class="cluster">
<title>cluster~/libraries/app_config</title>
<path fill="none" stroke="black" stroke-width="2.6" d="M4667,-24C4667,-24 4845,-24 4845,-24 4851,-24 4857,-30 4857,-36 4857,-36 4857,-607.19 4857,-607.19 4857,-613.19 4851,-619.19 4845,-619.19 4845,-619.19 4667,-619.19 4667,-619.19 4661,-619.19 4655,-613.19 4655,-607.19 4655,-607.19 4655,-36 4655,-36 4655,-30 4661,-24 4667,-24"/>
<text text-anchor="middle" x="4756" y="-604.79" font-family="Arial Black" font-size="13.00">app_config</text>
</g>
<g id="clust5" class="cluster">
<title>cluster~/libraries/app_config/lib</title>
<path fill="none" stroke="black" stroke-width="2.6" d="M4675,-32C4675,-32 4837,-32 4837,-32 4843,-32 4849,-38 4849,-44 4849,-44 4849,-577.19 4849,-577.19 4849,-583.19 4843,-589.19 4837,-589.19 4837,-589.19 4675,-589.19 4675,-589.19 4669,-589.19 4663,-583.19 4663,-577.19 4663,-577.19 4663,-44 4663,-44 4663,-38 4669,-32 4675,-32"/>
<text text-anchor="middle" x="4756" y="-574.79" font-family="Arial Black" font-size="13.00">lib</text>
</g>
<g id="clust6" class="cluster">
<title>cluster~/libraries/app_config/lib/src</title>
<path fill="none" stroke="black" stroke-width="2.6" d="M4683,-40C4683,-40 4829,-40 4829,-40 4835,-40 4841,-46 4841,-52 4841,-52 4841,-360 4841,-360 4841,-366 4835,-372 4829,-372 4829,-372 4683,-372 4683,-372 4677,-372 4671,-366 4671,-360 4671,-360 4671,-52 4671,-52 4671,-46 4677,-40 4683,-40"/>
<text text-anchor="middle" x="4756" y="-357.6" font-family="Arial Black" font-size="13.00">src</text>
</g>
<g id="clust7" class="cluster">
<title>cluster~/libraries/app_config/lib/src/app</title>
<path fill="none" stroke="black" stroke-width="2.6" d="M4691,-48C4691,-48 4821,-48 4821,-48 4827,-48 4833,-54 4833,-60 4833,-60 4833,-330 4833,-330 4833,-336 4827,-342 4821,-342 4821,-342 4691,-342 4691,-342 4685,-342 4679,-336 4679,-330 4679,-330 4679,-60 4679,-60 4679,-54 4685,-48 4691,-48"/>
<text text-anchor="middle" x="4756" y="-327.6" font-family="Arial Black" font-size="13.00">app</text>
</g>
<g id="clust8" class="cluster">
<title>cluster~/libraries/domain</title>
<path fill="none" stroke="black" stroke-width="2.6" d="M3106,-24C3106,-24 4635,-24 4635,-24 4641,-24 4647,-30 4647,-36 4647,-36 4647,-696.38 4647,-696.38 4647,-702.38 4641,-708.38 4635,-708.38 4635,-708.38 3106,-708.38 3106,-708.38 3100,-708.38 3094,-702.38 3094,-696.38 3094,-696.38 3094,-36 3094,-36 3094,-30 3100,-24 3106,-24"/>
<text text-anchor="middle" x="3870.5" y="-693.98" font-family="Arial Black" font-size="13.00">domain</text>
</g>
<g id="clust12" class="cluster">
<title>cluster~/libraries/domain/repository_interfaces</title>
<path fill="none" stroke="black" stroke-width="2.6" d="M4109,-404C4109,-404 4627,-404 4627,-404 4633,-404 4639,-410 4639,-416 4639,-416 4639,-636.38 4639,-636.38 4639,-642.38 4633,-648.38 4627,-648.38 4627,-648.38 4109,-648.38 4109,-648.38 4103,-648.38 4097,-642.38 4097,-636.38 4097,-636.38 4097,-416 4097,-416 4097,-410 4103,-404 4109,-404"/>
<text text-anchor="middle" x="4368" y="-633.98" font-family="Arial Black" font-size="13.00">repository_interfaces</text>
</g>
<g id="clust13" class="cluster">
<title>cluster~/libraries/domain/repository_interfaces/lib</title>
<path fill="none" stroke="black" stroke-width="2.6" d="M4117,-412C4117,-412 4619,-412 4619,-412 4625,-412 4631,-418 4631,-424 4631,-424 4631,-606.38 4631,-606.38 4631,-612.38 4625,-618.38 4619,-618.38 4619,-618.38 4117,-618.38 4117,-618.38 4111,-618.38 4105,-612.38 4105,-606.38 4105,-606.38 4105,-424 4105,-424 4105,-418 4111,-412 4117,-412"/>
<text text-anchor="middle" x="4368" y="-603.98" font-family="Arial Black" font-size="13.00">lib</text>
</g>
<g id="clust9" class="cluster">
<title>cluster~/libraries/domain/entities</title>
<path fill="none" stroke="black" stroke-width="2.6" d="M3917,-32C3917,-32 4077,-32 4077,-32 4083,-32 4089,-38 4089,-44 4089,-44 4089,-607.19 4089,-607.19 4089,-613.19 4083,-619.19 4077,-619.19 4077,-619.19 3917,-619.19 3917,-619.19 3911,-619.19 3905,-613.19 3905,-607.19 3905,-607.19 3905,-44 3905,-44 3905,-38 3911,-32 3917,-32"/>
<text text-anchor="middle" x="3997" y="-604.79" font-family="Arial Black" font-size="13.00">entities</text>
</g>
<g id="clust10" class="cluster">
<title>cluster~/libraries/domain/entities/lib</title>
<path fill="none" stroke="black" stroke-width="2.6" d="M3925,-40C3925,-40 4069,-40 4069,-40 4075,-40 4081,-46 4081,-52 4081,-52 4081,-577.19 4081,-577.19 4081,-583.19 4075,-589.19 4069,-589.19 4069,-589.19 3925,-589.19 3925,-589.19 3919,-589.19 3913,-583.19 3913,-577.19 3913,-577.19 3913,-52 3913,-52 3913,-46 3919,-40 3925,-40"/>
<text text-anchor="middle" x="3997" y="-574.79" font-family="Arial Black" font-size="13.00">lib</text>
</g>
<g id="clust11" class="cluster">
<title>cluster~/libraries/domain/entities/lib/src</title>
<path fill="none" stroke="black" stroke-width="2.6" d="M3933,-48C3933,-48 4049,-48 4049,-48 4055,-48 4061,-54 4061,-60 4061,-60 4061,-330 4061,-330 4061,-336 4055,-342 4049,-342 4049,-342 3933,-342 3933,-342 3927,-342 3921,-336 3921,-330 3921,-330 3921,-60 3921,-60 3921,-54 3927,-48 3933,-48"/>
<text text-anchor="middle" x="3991" y="-327.6" font-family="Arial Black" font-size="13.00">src</text>
</g>
<g id="clust14" class="cluster">
<title>cluster~/libraries/domain/use_cases</title>
<path fill="none" stroke="black" stroke-width="2.6" d="M3114,-396C3114,-396 3885,-396 3885,-396 3891,-396 3897,-402 3897,-408 3897,-408 3897,-666.38 3897,-666.38 3897,-672.38 3891,-678.38 3885,-678.38 3885,-678.38 3114,-678.38 3114,-678.38 3108,-678.38 3102,-672.38 3102,-666.38 3102,-666.38 3102,-408 3102,-408 3102,-402 3108,-396 3114,-396"/>
<text text-anchor="middle" x="3499.5" y="-663.98" font-family="Arial Black" font-size="13.00">use_cases</text>
</g>
<g id="clust15" class="cluster">
<title>cluster~/libraries/domain/use_cases/lib</title>
<path fill="none" stroke="black" stroke-width="2.6" d="M3122,-404C3122,-404 3877,-404 3877,-404 3883,-404 3889,-410 3889,-416 3889,-416 3889,-636.38 3889,-636.38 3889,-642.38 3883,-648.38 3877,-648.38 3877,-648.38 3122,-648.38 3122,-648.38 3116,-648.38 3110,-642.38 3110,-636.38 3110,-636.38 3110,-416 3110,-416 3110,-410 3116,-404 3122,-404"/>
<text text-anchor="middle" x="3499.5" y="-633.98" font-family="Arial Black" font-size="13.00">lib</text>
</g>
<g id="clust16" class="cluster">
<title>cluster~/libraries/domain/use_cases/lib/src</title>
<path fill="none" stroke="black" stroke-width="2.6" d="M3633,-412C3633,-412 3869,-412 3869,-412 3875,-412 3881,-418 3881,-424 3881,-424 3881,-606.38 3881,-606.38 3881,-612.38 3875,-618.38 3869,-618.38 3869,-618.38 3633,-618.38 3633,-618.38 3627,-618.38 3621,-612.38 3621,-606.38 3621,-606.38 3621,-424 3621,-424 3621,-418 3627,-412 3633,-412"/>
<text text-anchor="middle" x="3751" y="-603.98" font-family="Arial Black" font-size="13.00">src</text>
</g>
<g id="clust17" class="cluster">
<title>cluster~/libraries/presentation</title>
<path fill="none" stroke="black" stroke-width="2.6" d="M36,-380C36,-380 3074,-380 3074,-380 3080,-380 3086,-386 3086,-392 3086,-392 3086,-726.38 3086,-726.38 3086,-732.38 3080,-738.38 3074,-738.38 3074,-738.38 36,-738.38 36,-738.38 30,-738.38 24,-732.38 24,-726.38 24,-726.38 24,-392 24,-392 24,-386 30,-380 36,-380"/>
<text text-anchor="middle" x="1555" y="-723.98" font-family="Arial Black" font-size="13.00">presentation</text>
</g>
<g id="clust18" class="cluster">
<title>cluster~/libraries/presentation/lib</title>
<path fill="none" stroke="black" stroke-width="2.6" d="M44,-388C44,-388 3066,-388 3066,-388 3072,-388 3078,-394 3078,-400 3078,-400 3078,-696.38 3078,-696.38 3078,-702.38 3072,-708.38 3066,-708.38 3066,-708.38 44,-708.38 44,-708.38 38,-708.38 32,-702.38 32,-696.38 32,-696.38 32,-400 32,-400 32,-394 38,-388 44,-388"/>
<text text-anchor="middle" x="1555" y="-693.98" font-family="Arial Black" font-size="13.00">lib</text>
</g>
<g id="clust19" class="cluster">
<title>cluster~/libraries/presentation/lib/automaton</title>
<path fill="none" stroke="black" stroke-width="2.6" d="M52,-396C52,-396 3058,-396 3058,-396 3064,-396 3070,-402 3070,-408 3070,-408 3070,-666.38 3070,-666.38 3070,-672.38 3064,-678.38 3058,-678.38 3058,-678.38 52,-678.38 52,-678.38 46,-678.38 40,-672.38 40,-666.38 40,-666.38 40,-408 40,-408 40,-402 46,-396 52,-396"/>
<text text-anchor="middle" x="1555" y="-663.98" font-family="Arial Black" font-size="13.00">automaton</text>
</g>
<g id="clust20" class="cluster">
<title>cluster~/libraries/presentation/lib/automaton/pages</title>
<path fill="none" stroke="black" stroke-width="2.6" d="M2858,-412C2858,-412 3050,-412 3050,-412 3056,-412 3062,-418 3062,-424 3062,-424 3062,-606.38 3062,-606.38 3062,-612.38 3056,-618.38 3050,-618.38 3050,-618.38 2858,-618.38 2858,-618.38 2852,-618.38 2846,-612.38 2846,-606.38 2846,-606.38 2846,-424 2846,-424 2846,-418 2852,-412 2858,-412"/>
<text text-anchor="middle" x="2954" y="-603.98" font-family="Arial Black" font-size="13.00">pages</text>
</g>
<g id="clust21" class="cluster">
<title>cluster~/libraries/presentation/lib/automaton/widgets</title>
<path fill="none" stroke="black" stroke-width="2.6" d="M60,-404C60,-404 2826,-404 2826,-404 2832,-404 2838,-410 2838,-416 2838,-416 2838,-636.38 2838,-636.38 2838,-642.38 2832,-648.38 2826,-648.38 2826,-648.38 60,-648.38 60,-648.38 54,-648.38 48,-642.38 48,-636.38 48,-636.38 48,-416 48,-416 48,-410 54,-404 60,-404"/>
<text text-anchor="middle" x="1443" y="-633.98" font-family="Arial Black" font-size="13.00">widgets</text>
</g>
<g id="clust22" class="cluster">
<title>cluster~/libraries/presentation/lib/automaton/widgets/head</title>
<path fill="none" stroke="black" stroke-width="2.6" d="M1849,-412C1849,-412 2818,-412 2818,-412 2824,-412 2830,-418 2830,-424 2830,-424 2830,-606.38 2830,-606.38 2830,-612.38 2824,-618.38 2818,-618.38 2818,-618.38 1849,-618.38 1849,-618.38 1843,-618.38 1837,-612.38 1837,-606.38 1837,-606.38 1837,-424 1837,-424 1837,-418 1843,-412 1849,-412"/>
<text text-anchor="middle" x="2333.5" y="-603.98" font-family="Arial Black" font-size="13.00">head</text>
</g>
<!-- /lib/main.dart -->
<g id="node1" class="node">
<title>/lib/main.dart</title>
<path fill="Lavender" stroke="black" stroke-width="1.3" d="M5058.57,-481.24C5058.57,-481.24 5058.57,-527.14 5058.57,-527.14 5058.57,-533.14 5054.22,-543.28 5049.88,-547.42 5049.88,-547.42 5015.37,-580.29 5015.37,-580.29 5011.03,-584.43 5000.69,-588.57 4994.69,-588.57 4994.69,-588.57 4945.31,-588.57 4945.31,-588.57 4939.31,-588.57 4928.97,-584.43 4924.63,-580.29 4924.63,-580.29 4890.12,-547.42 4890.12,-547.42 4885.78,-543.28 4881.43,-533.14 4881.43,-527.14 4881.43,-527.14 4881.43,-481.24 4881.43,-481.24 4881.43,-475.24 4885.78,-465.1 4890.12,-460.96 4890.12,-460.96 4924.63,-428.09 4924.63,-428.09 4928.97,-423.95 4939.31,-419.81 4945.31,-419.81 4945.31,-419.81 4994.69,-419.81 4994.69,-419.81 5000.69,-419.81 5011.03,-423.95 5015.37,-428.09 5015.37,-428.09 5049.88,-460.96 5049.88,-460.96 5054.22,-465.1 5058.57,-475.24 5058.57,-481.24"/>
<text text-anchor="middle" x="4970" y="-543.19" font-family="Arial" font-size="15.00">main </text>
<text text-anchor="middle" x="4970" y="-526.19" font-family="Arial" font-size="15.00"> cd: 1 </text>
<text text-anchor="middle" x="4970" y="-509.19" font-family="Arial" font-size="15.00"> inDegree: 0 </text>
<text text-anchor="middle" x="4970" y="-492.19" font-family="Arial" font-size="15.00"> outDegree: 0 </text>
<text text-anchor="middle" x="4970" y="-475.19" font-family="Arial" font-size="15.00"> instability: null </text>
<text text-anchor="middle" x="4970" y="-458.19" font-family="Arial" font-size="15.00"> sloc: 4</text>
</g>
<!-- /libraries/app_config/lib/app_config.dart -->
<g id="node2" class="node">
<title>/libraries/app_config/lib/app_config.dart</title>
<path fill="Lavender" stroke="black" stroke-width="1.3" d="M4802,-559.19C4802,-559.19 4710,-559.19 4710,-559.19 4704,-559.19 4698,-553.19 4698,-547.19 4698,-547.19 4698,-461.19 4698,-461.19 4698,-455.19 4704,-449.19 4710,-449.19 4710,-449.19 4802,-449.19 4802,-449.19 4808,-449.19 4814,-455.19 4814,-461.19 4814,-461.19 4814,-547.19 4814,-547.19 4814,-553.19 4808,-559.19 4802,-559.19"/>
<text text-anchor="middle" x="4756" y="-543.19" font-family="Arial" font-size="15.00">app_config </text>
<text text-anchor="middle" x="4756" y="-526.19" font-family="Arial" font-size="15.00"> cd: 3 </text>
<text text-anchor="middle" x="4756" y="-509.19" font-family="Arial" font-size="15.00"> inDegree: 0 </text>
<text text-anchor="middle" x="4756" y="-492.19" font-family="Arial" font-size="15.00"> outDegree: 1 </text>
<text text-anchor="middle" x="4756" y="-475.19" font-family="Arial" font-size="15.00"> instability: 1.0 </text>
<text text-anchor="middle" x="4756" y="-458.19" font-family="Arial" font-size="15.00"> sloc: 1</text>
</g>
<!-- /libraries/app_config/lib/src/app/app_main.dart -->
<g id="node3" class="node">
<title>/libraries/app_config/lib/src/app/app_main.dart</title>
<path fill="Lavender" stroke="black" stroke-width="1.3" d="M4802,-312C4802,-312 4710,-312 4710,-312 4704,-312 4698,-306 4698,-300 4698,-300 4698,-214 4698,-214 4698,-208 4704,-202 4710,-202 4710,-202 4802,-202 4802,-202 4808,-202 4814,-208 4814,-214 4814,-214 4814,-300 4814,-300 4814,-306 4808,-312 4802,-312"/>
<text text-anchor="middle" x="4756" y="-296" font-family="Arial" font-size="15.00">app_main </text>
<text text-anchor="middle" x="4756" y="-279" font-family="Arial" font-size="15.00"> cd: 2 </text>
<text text-anchor="middle" x="4756" y="-262" font-family="Arial" font-size="15.00"> inDegree: 1 </text>
<text text-anchor="middle" x="4756" y="-245" font-family="Arial" font-size="15.00"> outDegree: 1 </text>
<text text-anchor="middle" x="4756" y="-228" font-family="Arial" font-size="15.00"> instability: 0.5 </text>
<text text-anchor="middle" x="4756" y="-211" font-family="Arial" font-size="15.00"> sloc: 8</text>
</g>
<!-- /libraries/app_config/lib/app_config.dart&#45;&gt;/libraries/app_config/lib/src/app/app_main.dart -->
<g id="edge1" class="edge">
<title>/libraries/app_config/lib/app_config.dart&#45;&gt;/libraries/app_config/lib/src/app/app_main.dart</title>
<path fill="none" stroke="black" stroke-width="1.3" stroke-dasharray="5,2" d="M4756,-448.77C4756,-411.95 4756,-363.1 4756,-324.04"/>
<polygon fill="black" stroke="black" stroke-width="1.3" points="4759.5,-324.23 4756,-314.23 4752.5,-324.23 4759.5,-324.23"/>
</g>
<!-- /libraries/app_config/lib/src/app/main_app_widget.dart -->
<g id="node4" class="node">
<title>/libraries/app_config/lib/src/app/main_app_widget.dart</title>
<path fill="Lavender" stroke="black" stroke-width="1.3" d="M4812.5,-166C4812.5,-166 4699.5,-166 4699.5,-166 4693.5,-166 4687.5,-160 4687.5,-154 4687.5,-154 4687.5,-68 4687.5,-68 4687.5,-62 4693.5,-56 4699.5,-56 4699.5,-56 4812.5,-56 4812.5,-56 4818.5,-56 4824.5,-62 4824.5,-68 4824.5,-68 4824.5,-154 4824.5,-154 4824.5,-160 4818.5,-166 4812.5,-166"/>
<text text-anchor="middle" x="4756" y="-150" font-family="Arial" font-size="15.00">main_app_widget </text>
<text text-anchor="middle" x="4756" y="-133" font-family="Arial" font-size="15.00"> cd: 1 </text>
<text text-anchor="middle" x="4756" y="-116" font-family="Arial" font-size="15.00"> inDegree: 1 </text>
<text text-anchor="middle" x="4756" y="-99" font-family="Arial" font-size="15.00"> outDegree: 0 </text>
<text text-anchor="middle" x="4756" y="-82" font-family="Arial" font-size="15.00"> instability: 0.0 </text>
<text text-anchor="middle" x="4756" y="-65" font-family="Arial" font-size="15.00"> sloc: 13</text>
</g>
<!-- /libraries/app_config/lib/src/app/app_main.dart&#45;&gt;/libraries/app_config/lib/src/app/main_app_widget.dart -->
<g id="edge2" class="edge">
<title>/libraries/app_config/lib/src/app/app_main.dart&#45;&gt;/libraries/app_config/lib/src/app/main_app_widget.dart</title>
<path fill="none" stroke="black" stroke-width="1.3" d="M4756,-201.56C4756,-193.84 4756,-185.83 4756,-177.92"/>
<polygon fill="black" stroke="black" stroke-width="1.3" points="4759.5,-178.01 4756,-168.01 4752.5,-178.01 4759.5,-178.01"/>
</g>
<!-- /libraries/domain/entities/lib/entities.dart -->
<g id="node5" class="node">
<title>/libraries/domain/entities/lib/entities.dart</title>
<path fill="Lavender" stroke="black" stroke-width="1.3" d="M4049,-559.19C4049,-559.19 3957,-559.19 3957,-559.19 3951,-559.19 3945,-553.19 3945,-547.19 3945,-547.19 3945,-461.19 3945,-461.19 3945,-455.19 3951,-449.19 3957,-449.19 3957,-449.19 4049,-449.19 4049,-449.19 4055,-449.19 4061,-455.19 4061,-461.19 4061,-461.19 4061,-547.19 4061,-547.19 4061,-553.19 4055,-559.19 4049,-559.19"/>
<text text-anchor="middle" x="4003" y="-543.19" font-family="Arial" font-size="15.00">entities </text>
<text text-anchor="middle" x="4003" y="-526.19" font-family="Arial" font-size="15.00"> cd: 3 </text>
<text text-anchor="middle" x="4003" y="-509.19" font-family="Arial" font-size="15.00"> inDegree: 0 </text>
<text text-anchor="middle" x="4003" y="-492.19" font-family="Arial" font-size="15.00"> outDegree: 2 </text>
<text text-anchor="middle" x="4003" y="-475.19" font-family="Arial" font-size="15.00"> instability: 1.0 </text>
<text text-anchor="middle" x="4003" y="-458.19" font-family="Arial" font-size="15.00"> sloc: 2</text>
</g>
<!-- /libraries/domain/entities/lib/src/entity.dart -->
<g id="node6" class="node">
<title>/libraries/domain/entities/lib/src/entity.dart</title>
<path fill="Lavender" stroke="black" stroke-width="1.3" d="M4041,-312C4041,-312 3941,-312 3941,-312 3935,-312 3929,-306 3929,-300 3929,-300 3929,-214 3929,-214 3929,-208 3935,-202 3941,-202 3941,-202 4041,-202 4041,-202 4047,-202 4053,-208 4053,-214 4053,-214 4053,-300 4053,-300 4053,-306 4047,-312 4041,-312"/>
<text text-anchor="middle" x="3991" y="-296" font-family="Arial" font-size="15.00">entity </text>
<text text-anchor="middle" x="3991" y="-279" font-family="Arial" font-size="15.00"> cd: 2 </text>
<text text-anchor="middle" x="3991" y="-262" font-family="Arial" font-size="15.00"> inDegree: 2 </text>
<text text-anchor="middle" x="3991" y="-245" font-family="Arial" font-size="15.00"> outDegree: 1 </text>
<text text-anchor="middle" x="3991" y="-228" font-family="Arial" font-size="15.00"> instability: 0.33 </text>
<text text-anchor="middle" x="3991" y="-211" font-family="Arial" font-size="15.00"> sloc: 23</text>
</g>
<!-- /libraries/domain/entities/lib/entities.dart&#45;&gt;/libraries/domain/entities/lib/src/entity.dart -->
<g id="edge3" class="edge">
<title>/libraries/domain/entities/lib/entities.dart&#45;&gt;/libraries/domain/entities/lib/src/entity.dart</title>
<path fill="none" stroke="black" stroke-width="1.3" stroke-dasharray="5,2" d="M4000.34,-448.77C3998.53,-411.95 3996.14,-363.1 3994.23,-324.04"/>
<polygon fill="black" stroke="black" stroke-width="1.3" points="3997.74,-324.05 3993.75,-314.23 3990.75,-324.39 3997.74,-324.05"/>
</g>
<!-- /libraries/domain/entities/lib/src/named_entity.dart -->
<g id="node7" class="node">
<title>/libraries/domain/entities/lib/src/named_entity.dart</title>
<path fill="Lavender" stroke="black" stroke-width="1.3" d="M4041,-166C4041,-166 3941,-166 3941,-166 3935,-166 3929,-160 3929,-154 3929,-154 3929,-68 3929,-68 3929,-62 3935,-56 3941,-56 3941,-56 4041,-56 4041,-56 4047,-56 4053,-62 4053,-68 4053,-68 4053,-154 4053,-154 4053,-160 4047,-166 4041,-166"/>
<text text-anchor="middle" x="3991" y="-150" font-family="Arial" font-size="15.00">named_entity </text>
<text text-anchor="middle" x="3991" y="-133" font-family="Arial" font-size="15.00"> cd: 2 </text>
<text text-anchor="middle" x="3991" y="-116" font-family="Arial" font-size="15.00"> inDegree: 2 </text>
<text text-anchor="middle" x="3991" y="-99" font-family="Arial" font-size="15.00"> outDegree: 1 </text>
<text text-anchor="middle" x="3991" y="-82" font-family="Arial" font-size="15.00"> instability: 0.33 </text>
<text text-anchor="middle" x="3991" y="-65" font-family="Arial" font-size="15.00"> sloc: 13</text>
</g>
<!-- /libraries/domain/entities/lib/entities.dart&#45;&gt;/libraries/domain/entities/lib/src/named_entity.dart -->
<g id="edge4" class="edge">
<title>/libraries/domain/entities/lib/entities.dart&#45;&gt;/libraries/domain/entities/lib/src/named_entity.dart</title>
<path fill="none" stroke="black" stroke-width="1.3" stroke-dasharray="5,2" d="M4033.69,-448.79C4044.96,-425.84 4056.34,-398.37 4062,-372 4077.85,-298.13 4086.77,-273.38 4062,-202 4058.89,-193.04 4054.48,-184.3 4049.36,-176.01"/>
<polygon fill="black" stroke="black" stroke-width="1.3" points="4052.34,-174.17 4043.9,-167.77 4046.51,-178.04 4052.34,-174.17"/>
</g>
<!-- /libraries/domain/entities/lib/src/entity.dart&#45;&gt;/libraries/domain/entities/lib/src/named_entity.dart -->
<g id="edge5" class="edge">
<title>/libraries/domain/entities/lib/src/entity.dart&#45;&gt;/libraries/domain/entities/lib/src/named_entity.dart</title>
<path fill="none" stroke="black" stroke-width="1.3" d="M3984.43,-201.56C3984.27,-193.84 3984.22,-185.83 3984.27,-177.92"/>
<polygon fill="black" stroke="black" stroke-width="1.3" points="3987.77,-178.06 3984.41,-168.01 3980.77,-177.96 3987.77,-178.06"/>
</g>
<!-- /libraries/domain/entities/lib/src/named_entity.dart&#45;&gt;/libraries/domain/entities/lib/src/entity.dart -->
<g id="edge6" class="edge">
<title>/libraries/domain/entities/lib/src/named_entity.dart&#45;&gt;/libraries/domain/entities/lib/src/entity.dart</title>
<path fill="none" stroke="black" stroke-width="1.3" d="M3997.56,-166.04C3997.73,-173.75 3997.78,-181.76 3997.73,-189.67"/>
<polygon fill="black" stroke="black" stroke-width="1.3" points="3994.23,-189.55 3997.6,-199.59 4001.23,-189.64 3994.23,-189.55"/>
</g>
<!-- /libraries/domain/repository_interfaces/lib/repository1_interface.dart -->
<g id="node8" class="node">
<title>/libraries/domain/repository_interfaces/lib/repository1_interface.dart</title>
<path fill="Lavender" stroke="black" stroke-width="1.3" d="M4623.45,-481.24C4623.45,-481.24 4623.45,-527.14 4623.45,-527.14 4623.45,-533.14 4618.5,-542.53 4613.54,-545.91 4613.54,-545.91 4561.04,-581.8 4561.04,-581.8 4556.09,-585.19 4545.13,-588.57 4539.13,-588.57 4539.13,-588.57 4460.87,-588.57 4460.87,-588.57 4454.87,-588.57 4443.91,-585.19 4438.96,-581.8 4438.96,-581.8 4386.46,-545.91 4386.46,-545.91 4381.5,-542.53 4376.55,-533.14 4376.55,-527.14 4376.55,-527.14 4376.55,-481.24 4376.55,-481.24 4376.55,-475.24 4381.5,-465.85 4386.46,-462.47 4386.46,-462.47 4438.96,-426.58 4438.96,-426.58 4443.91,-423.2 4454.87,-419.81 4460.87,-419.81 4460.87,-419.81 4539.13,-419.81 4539.13,-419.81 4545.13,-419.81 4556.09,-423.2 4561.04,-426.58 4561.04,-426.58 4613.54,-462.47 4613.54,-462.47 4618.5,-465.85 4623.45,-475.24 4623.45,-481.24"/>
<text text-anchor="middle" x="4500" y="-543.19" font-family="Arial" font-size="15.00">repository1_interface </text>
<text text-anchor="middle" x="4500" y="-526.19" font-family="Arial" font-size="15.00"> cd: 1 </text>
<text text-anchor="middle" x="4500" y="-509.19" font-family="Arial" font-size="15.00"> inDegree: 0 </text>
<text text-anchor="middle" x="4500" y="-492.19" font-family="Arial" font-size="15.00"> outDegree: 0 </text>
<text text-anchor="middle" x="4500" y="-475.19" font-family="Arial" font-size="15.00"> instability: null </text>
<text text-anchor="middle" x="4500" y="-458.19" font-family="Arial" font-size="15.00"> sloc: 0</text>
</g>
<!-- /libraries/domain/repository_interfaces/lib/repository2_interface.dart -->
<g id="node9" class="node">
<title>/libraries/domain/repository_interfaces/lib/repository2_interface.dart</title>
<path fill="Lavender" stroke="black" stroke-width="1.3" d="M4359.45,-481.24C4359.45,-481.24 4359.45,-527.14 4359.45,-527.14 4359.45,-533.14 4354.5,-542.53 4349.54,-545.91 4349.54,-545.91 4297.04,-581.8 4297.04,-581.8 4292.09,-585.19 4281.13,-588.57 4275.13,-588.57 4275.13,-588.57 4196.87,-588.57 4196.87,-588.57 4190.87,-588.57 4179.91,-585.19 4174.96,-581.8 4174.96,-581.8 4122.46,-545.91 4122.46,-545.91 4117.5,-542.53 4112.55,-533.14 4112.55,-527.14 4112.55,-527.14 4112.55,-481.24 4112.55,-481.24 4112.55,-475.24 4117.5,-465.85 4122.46,-462.47 4122.46,-462.47 4174.96,-426.58 4174.96,-426.58 4179.91,-423.2 4190.87,-419.81 4196.87,-419.81 4196.87,-419.81 4275.13,-419.81 4275.13,-419.81 4281.13,-419.81 4292.09,-423.2 4297.04,-426.58 4297.04,-426.58 4349.54,-462.47 4349.54,-462.47 4354.5,-465.85 4359.45,-475.24 4359.45,-481.24"/>
<text text-anchor="middle" x="4236" y="-543.19" font-family="Arial" font-size="15.00">repository2_interface </text>
<text text-anchor="middle" x="4236" y="-526.19" font-family="Arial" font-size="15.00"> cd: 1 </text>
<text text-anchor="middle" x="4236" y="-509.19" font-family="Arial" font-size="15.00"> inDegree: 0 </text>
<text text-anchor="middle" x="4236" y="-492.19" font-family="Arial" font-size="15.00"> outDegree: 0 </text>
<text text-anchor="middle" x="4236" y="-475.19" font-family="Arial" font-size="15.00"> instability: null </text>
<text text-anchor="middle" x="4236" y="-458.19" font-family="Arial" font-size="15.00"> sloc: 0</text>
</g>
<!-- /libraries/domain/use_cases/lib/feature1_use_cases.dart -->
<g id="node10" class="node">
<title>/libraries/domain/use_cases/lib/feature1_use_cases.dart</title>
<path fill="Lavender" stroke="black" stroke-width="1.3" d="M3610.76,-481.24C3610.76,-481.24 3610.76,-527.14 3610.76,-527.14 3610.76,-533.14 3605.87,-542.62 3600.98,-546.09 3600.98,-546.09 3550.98,-581.62 3550.98,-581.62 3546.08,-585.1 3535.19,-588.57 3529.19,-588.57 3529.19,-588.57 3454.81,-588.57 3454.81,-588.57 3448.81,-588.57 3437.92,-585.1 3433.02,-581.62 3433.02,-581.62 3383.02,-546.09 3383.02,-546.09 3378.13,-542.62 3373.24,-533.14 3373.24,-527.14 3373.24,-527.14 3373.24,-481.24 3373.24,-481.24 3373.24,-475.24 3378.13,-465.76 3383.02,-462.29 3383.02,-462.29 3433.02,-426.76 3433.02,-426.76 3437.92,-423.28 3448.81,-419.81 3454.81,-419.81 3454.81,-419.81 3529.19,-419.81 3529.19,-419.81 3535.19,-419.81 3546.08,-423.28 3550.98,-426.76 3550.98,-426.76 3600.98,-462.29 3600.98,-462.29 3605.87,-465.76 3610.76,-475.24 3610.76,-481.24"/>
<text text-anchor="middle" x="3492" y="-543.19" font-family="Arial" font-size="15.00">feature1_use_cases </text>
<text text-anchor="middle" x="3492" y="-526.19" font-family="Arial" font-size="15.00"> cd: 1 </text>
<text text-anchor="middle" x="3492" y="-509.19" font-family="Arial" font-size="15.00"> inDegree: 0 </text>
<text text-anchor="middle" x="3492" y="-492.19" font-family="Arial" font-size="15.00"> outDegree: 0 </text>
<text text-anchor="middle" x="3492" y="-475.19" font-family="Arial" font-size="15.00"> instability: null </text>
<text text-anchor="middle" x="3492" y="-458.19" font-family="Arial" font-size="15.00"> sloc: 0</text>
</g>
<!-- /libraries/domain/use_cases/lib/feature2_use_cases.dart -->
<g id="node11" class="node">
<title>/libraries/domain/use_cases/lib/feature2_use_cases.dart</title>
<path fill="Lavender" stroke="black" stroke-width="1.3" d="M3355.76,-481.24C3355.76,-481.24 3355.76,-527.14 3355.76,-527.14 3355.76,-533.14 3350.87,-542.62 3345.98,-546.09 3345.98,-546.09 3295.98,-581.62 3295.98,-581.62 3291.08,-585.1 3280.19,-588.57 3274.19,-588.57 3274.19,-588.57 3199.81,-588.57 3199.81,-588.57 3193.81,-588.57 3182.92,-585.1 3178.02,-581.62 3178.02,-581.62 3128.02,-546.09 3128.02,-546.09 3123.13,-542.62 3118.24,-533.14 3118.24,-527.14 3118.24,-527.14 3118.24,-481.24 3118.24,-481.24 3118.24,-475.24 3123.13,-465.76 3128.02,-462.29 3128.02,-462.29 3178.02,-426.76 3178.02,-426.76 3182.92,-423.28 3193.81,-419.81 3199.81,-419.81 3199.81,-419.81 3274.19,-419.81 3274.19,-419.81 3280.19,-419.81 3291.08,-423.28 3295.98,-426.76 3295.98,-426.76 3345.98,-462.29 3345.98,-462.29 3350.87,-465.76 3355.76,-475.24 3355.76,-481.24"/>
<text text-anchor="middle" x="3237" y="-543.19" font-family="Arial" font-size="15.00">feature2_use_cases </text>
<text text-anchor="middle" x="3237" y="-526.19" font-family="Arial" font-size="15.00"> cd: 1 </text>
<text text-anchor="middle" x="3237" y="-509.19" font-family="Arial" font-size="15.00"> inDegree: 0 </text>
<text text-anchor="middle" x="3237" y="-492.19" font-family="Arial" font-size="15.00"> outDegree: 0 </text>
<text text-anchor="middle" x="3237" y="-475.19" font-family="Arial" font-size="15.00"> instability: null </text>
<text text-anchor="middle" x="3237" y="-458.19" font-family="Arial" font-size="15.00"> sloc: 0</text>
</g>
<!-- /libraries/domain/use_cases/lib/src/placeholder_usecase.dart -->
<g id="node12" class="node">
<title>/libraries/domain/use_cases/lib/src/placeholder_usecase.dart</title>
<path fill="Lavender" stroke="black" stroke-width="1.3" d="M3873.42,-481.24C3873.42,-481.24 3873.42,-527.14 3873.42,-527.14 3873.42,-533.14 3868.48,-542.55 3863.54,-545.95 3863.54,-545.95 3811.59,-581.76 3811.59,-581.76 3806.65,-585.17 3795.71,-588.57 3789.71,-588.57 3789.71,-588.57 3712.29,-588.57 3712.29,-588.57 3706.29,-588.57 3695.35,-585.17 3690.41,-581.76 3690.41,-581.76 3638.46,-545.95 3638.46,-545.95 3633.52,-542.55 3628.58,-533.14 3628.58,-527.14 3628.58,-527.14 3628.58,-481.24 3628.58,-481.24 3628.58,-475.24 3633.52,-465.83 3638.46,-462.43 3638.46,-462.43 3690.41,-426.62 3690.41,-426.62 3695.35,-423.21 3706.29,-419.81 3712.29,-419.81 3712.29,-419.81 3789.71,-419.81 3789.71,-419.81 3795.71,-419.81 3806.65,-423.21 3811.59,-426.62 3811.59,-426.62 3863.54,-462.43 3863.54,-462.43 3868.48,-465.83 3873.42,-475.24 3873.42,-481.24"/>
<text text-anchor="middle" x="3751" y="-543.19" font-family="Arial" font-size="15.00">placeholder_usecase </text>
<text text-anchor="middle" x="3751" y="-526.19" font-family="Arial" font-size="15.00"> cd: 1 </text>
<text text-anchor="middle" x="3751" y="-509.19" font-family="Arial" font-size="15.00"> inDegree: 0 </text>
<text text-anchor="middle" x="3751" y="-492.19" font-family="Arial" font-size="15.00"> outDegree: 0 </text>
<text text-anchor="middle" x="3751" y="-475.19" font-family="Arial" font-size="15.00"> instability: null </text>
<text text-anchor="middle" x="3751" y="-458.19" font-family="Arial" font-size="15.00"> sloc: 0</text>
</g>
<!-- /libraries/presentation/lib/automaton/pages/automaton_page.dart -->
<g id="node13" class="node">
<title>/libraries/presentation/lib/automaton/pages/automaton_page.dart</title>
<path fill="Lavender" stroke="black" stroke-width="1.3" d="M3054.03,-481.24C3054.03,-481.24 3054.03,-527.14 3054.03,-527.14 3054.03,-533.14 3049.44,-543.01 3044.85,-546.88 3044.85,-546.88 3004.6,-580.83 3004.6,-580.83 3000.02,-584.7 2989.43,-588.57 2983.43,-588.57 2983.43,-588.57 2924.57,-588.57 2924.57,-588.57 2918.57,-588.57 2907.98,-584.7 2903.4,-580.83 2903.4,-580.83 2863.15,-546.88 2863.15,-546.88 2858.56,-543.01 2853.97,-533.14 2853.97,-527.14 2853.97,-527.14 2853.97,-481.24 2853.97,-481.24 2853.97,-475.24 2858.56,-465.37 2863.15,-461.5 2863.15,-461.5 2903.4,-427.55 2903.4,-427.55 2907.98,-423.68 2918.57,-419.81 2924.57,-419.81 2924.57,-419.81 2983.43,-419.81 2983.43,-419.81 2989.43,-419.81 3000.02,-423.68 3004.6,-427.55 3004.6,-427.55 3044.85,-461.5 3044.85,-461.5 3049.44,-465.37 3054.03,-475.24 3054.03,-481.24"/>
<text text-anchor="middle" x="2954" y="-543.19" font-family="Arial" font-size="15.00">automaton_page </text>
<text text-anchor="middle" x="2954" y="-526.19" font-family="Arial" font-size="15.00"> cd: 1 </text>
<text text-anchor="middle" x="2954" y="-509.19" font-family="Arial" font-size="15.00"> inDegree: 0 </text>
<text text-anchor="middle" x="2954" y="-492.19" font-family="Arial" font-size="15.00"> outDegree: 0 </text>
<text text-anchor="middle" x="2954" y="-475.19" font-family="Arial" font-size="15.00"> instability: null </text>
<text text-anchor="middle" x="2954" y="-458.19" font-family="Arial" font-size="15.00"> sloc: 10</text>
</g>
<!-- /libraries/presentation/lib/automaton/widgets/arm.dart -->
<g id="node14" class="node">
<title>/libraries/presentation/lib/automaton/widgets/arm.dart</title>
<path fill="Lavender" stroke="black" stroke-width="1.3" d="M1827.57,-481.24C1827.57,-481.24 1827.57,-527.14 1827.57,-527.14 1827.57,-533.14 1823.22,-543.28 1818.88,-547.42 1818.88,-547.42 1784.37,-580.29 1784.37,-580.29 1780.03,-584.43 1769.69,-588.57 1763.69,-588.57 1763.69,-588.57 1714.31,-588.57 1714.31,-588.57 1708.31,-588.57 1697.97,-584.43 1693.63,-580.29 1693.63,-580.29 1659.12,-547.42 1659.12,-547.42 1654.78,-543.28 1650.43,-533.14 1650.43,-527.14 1650.43,-527.14 1650.43,-481.24 1650.43,-481.24 1650.43,-475.24 1654.78,-465.1 1659.12,-460.96 1659.12,-460.96 1693.63,-428.09 1693.63,-428.09 1697.97,-423.95 1708.31,-419.81 1714.31,-419.81 1714.31,-419.81 1763.69,-419.81 1763.69,-419.81 1769.69,-419.81 1780.03,-423.95 1784.37,-428.09 1784.37,-428.09 1818.88,-460.96 1818.88,-460.96 1823.22,-465.1 1827.57,-475.24 1827.57,-481.24"/>
<text text-anchor="middle" x="1739" y="-543.19" font-family="Arial" font-size="15.00">arm </text>
<text text-anchor="middle" x="1739" y="-526.19" font-family="Arial" font-size="15.00"> cd: 1 </text>
<text text-anchor="middle" x="1739" y="-509.19" font-family="Arial" font-size="15.00"> inDegree: 0 </text>
<text text-anchor="middle" x="1739" y="-492.19" font-family="Arial" font-size="15.00"> outDegree: 0 </text>
<text text-anchor="middle" x="1739" y="-475.19" font-family="Arial" font-size="15.00"> instability: null </text>
<text text-anchor="middle" x="1739" y="-458.19" font-family="Arial" font-size="15.00"> sloc: 8</text>
</g>
<!-- /libraries/presentation/lib/automaton/widgets/body.dart -->
<g id="node15" class="node">
<title>/libraries/presentation/lib/automaton/widgets/body.dart</title>
<path fill="Lavender" stroke="black" stroke-width="1.3" d="M1631.57,-481.24C1631.57,-481.24 1631.57,-527.14 1631.57,-527.14 1631.57,-533.14 1627.22,-543.28 1622.88,-547.42 1622.88,-547.42 1588.37,-580.29 1588.37,-580.29 1584.03,-584.43 1573.69,-588.57 1567.69,-588.57 1567.69,-588.57 1518.31,-588.57 1518.31,-588.57 1512.31,-588.57 1501.97,-584.43 1497.63,-580.29 1497.63,-580.29 1463.12,-547.42 1463.12,-547.42 1458.78,-543.28 1454.43,-533.14 1454.43,-527.14 1454.43,-527.14 1454.43,-481.24 1454.43,-481.24 1454.43,-475.24 1458.78,-465.1 1463.12,-460.96 1463.12,-460.96 1497.63,-428.09 1497.63,-428.09 1501.97,-423.95 1512.31,-419.81 1518.31,-419.81 1518.31,-419.81 1567.69,-419.81 1567.69,-419.81 1573.69,-419.81 1584.03,-423.95 1588.37,-428.09 1588.37,-428.09 1622.88,-460.96 1622.88,-460.96 1627.22,-465.1 1631.57,-475.24 1631.57,-481.24"/>
<text text-anchor="middle" x="1543" y="-543.19" font-family="Arial" font-size="15.00">body </text>
<text text-anchor="middle" x="1543" y="-526.19" font-family="Arial" font-size="15.00"> cd: 1 </text>
<text text-anchor="middle" x="1543" y="-509.19" font-family="Arial" font-size="15.00"> inDegree: 0 </text>
<text text-anchor="middle" x="1543" y="-492.19" font-family="Arial" font-size="15.00"> outDegree: 0 </text>
<text text-anchor="middle" x="1543" y="-475.19" font-family="Arial" font-size="15.00"> instability: null </text>
<text text-anchor="middle" x="1543" y="-458.19" font-family="Arial" font-size="15.00"> sloc: 8</text>
</g>
<!-- /libraries/presentation/lib/automaton/widgets/head/animated_face.dart -->
<g id="node16" class="node">
<title>/libraries/presentation/lib/automaton/widgets/head/animated_face.dart</title>
<path fill="Lavender" stroke="black" stroke-width="1.3" d="M2822.13,-481.24C2822.13,-481.24 2822.13,-527.14 2822.13,-527.14 2822.13,-533.14 2817.75,-543.24 2813.37,-547.34 2813.37,-547.34 2778.09,-580.37 2778.09,-580.37 2773.71,-584.47 2763.33,-588.57 2757.33,-588.57 2757.33,-588.57 2706.67,-588.57 2706.67,-588.57 2700.67,-588.57 2690.29,-584.47 2685.91,-580.37 2685.91,-580.37 2650.63,-547.34 2650.63,-547.34 2646.25,-543.24 2641.87,-533.14 2641.87,-527.14 2641.87,-527.14 2641.87,-481.24 2641.87,-481.24 2641.87,-475.24 2646.25,-465.14 2650.63,-461.04 2650.63,-461.04 2685.91,-428.01 2685.91,-428.01 2690.29,-423.91 2700.67,-419.81 2706.67,-419.81 2706.67,-419.81 2757.33,-419.81 2757.33,-419.81 2763.33,-419.81 2773.71,-423.91 2778.09,-428.01 2778.09,-428.01 2813.37,-461.04 2813.37,-461.04 2817.75,-465.14 2822.13,-475.24 2822.13,-481.24"/>
<text text-anchor="middle" x="2732" y="-543.19" font-family="Arial" font-size="15.00">animated_face </text>
<text text-anchor="middle" x="2732" y="-526.19" font-family="Arial" font-size="15.00"> cd: 1 </text>
<text text-anchor="middle" x="2732" y="-509.19" font-family="Arial" font-size="15.00"> inDegree: 0 </text>
<text text-anchor="middle" x="2732" y="-492.19" font-family="Arial" font-size="15.00"> outDegree: 0 </text>
<text text-anchor="middle" x="2732" y="-475.19" font-family="Arial" font-size="15.00"> instability: null </text>
<text text-anchor="middle" x="2732" y="-458.19" font-family="Arial" font-size="15.00"> sloc: 8</text>
</g>
<!-- /libraries/presentation/lib/automaton/widgets/head/ear.dart -->
<g id="node17" class="node">
<title>/libraries/presentation/lib/automaton/widgets/head/ear.dart</title>
<path fill="Lavender" stroke="black" stroke-width="1.3" d="M2623.57,-481.24C2623.57,-481.24 2623.57,-527.14 2623.57,-527.14 2623.57,-533.14 2619.22,-543.28 2614.88,-547.42 2614.88,-547.42 2580.37,-580.29 2580.37,-580.29 2576.03,-584.43 2565.69,-588.57 2559.69,-588.57 2559.69,-588.57 2510.31,-588.57 2510.31,-588.57 2504.31,-588.57 2493.97,-584.43 2489.63,-580.29 2489.63,-580.29 2455.12,-547.42 2455.12,-547.42 2450.78,-543.28 2446.43,-533.14 2446.43,-527.14 2446.43,-527.14 2446.43,-481.24 2446.43,-481.24 2446.43,-475.24 2450.78,-465.1 2455.12,-460.96 2455.12,-460.96 2489.63,-428.09 2489.63,-428.09 2493.97,-423.95 2504.31,-419.81 2510.31,-419.81 2510.31,-419.81 2559.69,-419.81 2559.69,-419.81 2565.69,-419.81 2576.03,-423.95 2580.37,-428.09 2580.37,-428.09 2614.88,-460.96 2614.88,-460.96 2619.22,-465.1 2623.57,-475.24 2623.57,-481.24"/>
<text text-anchor="middle" x="2535" y="-543.19" font-family="Arial" font-size="15.00">ear </text>
<text text-anchor="middle" x="2535" y="-526.19" font-family="Arial" font-size="15.00"> cd: 1 </text>
<text text-anchor="middle" x="2535" y="-509.19" font-family="Arial" font-size="15.00"> inDegree: 0 </text>
<text text-anchor="middle" x="2535" y="-492.19" font-family="Arial" font-size="15.00"> outDegree: 0 </text>
<text text-anchor="middle" x="2535" y="-475.19" font-family="Arial" font-size="15.00"> instability: null </text>
<text text-anchor="middle" x="2535" y="-458.19" font-family="Arial" font-size="15.00"> sloc: 8</text>
</g>
<!-- /libraries/presentation/lib/automaton/widgets/head/emoji_face.dart -->
<g id="node18" class="node">
<title>/libraries/presentation/lib/automaton/widgets/head/emoji_face.dart</title>
<path fill="Lavender" stroke="black" stroke-width="1.3" d="M2427.57,-481.24C2427.57,-481.24 2427.57,-527.14 2427.57,-527.14 2427.57,-533.14 2423.22,-543.28 2418.88,-547.42 2418.88,-547.42 2384.37,-580.29 2384.37,-580.29 2380.03,-584.43 2369.69,-588.57 2363.69,-588.57 2363.69,-588.57 2314.31,-588.57 2314.31,-588.57 2308.31,-588.57 2297.97,-584.43 2293.63,-580.29 2293.63,-580.29 2259.12,-547.42 2259.12,-547.42 2254.78,-543.28 2250.43,-533.14 2250.43,-527.14 2250.43,-527.14 2250.43,-481.24 2250.43,-481.24 2250.43,-475.24 2254.78,-465.1 2259.12,-460.96 2259.12,-460.96 2293.63,-428.09 2293.63,-428.09 2297.97,-423.95 2308.31,-419.81 2314.31,-419.81 2314.31,-419.81 2363.69,-419.81 2363.69,-419.81 2369.69,-419.81 2380.03,-423.95 2384.37,-428.09 2384.37,-428.09 2418.88,-460.96 2418.88,-460.96 2423.22,-465.1 2427.57,-475.24 2427.57,-481.24"/>
<text text-anchor="middle" x="2339" y="-543.19" font-family="Arial" font-size="15.00">emoji_face </text>
<text text-anchor="middle" x="2339" y="-526.19" font-family="Arial" font-size="15.00"> cd: 1 </text>
<text text-anchor="middle" x="2339" y="-509.19" font-family="Arial" font-size="15.00"> inDegree: 0 </text>
<text text-anchor="middle" x="2339" y="-492.19" font-family="Arial" font-size="15.00"> outDegree: 0 </text>
<text text-anchor="middle" x="2339" y="-475.19" font-family="Arial" font-size="15.00"> instability: null </text>
<text text-anchor="middle" x="2339" y="-458.19" font-family="Arial" font-size="15.00"> sloc: 8</text>
</g>
<!-- /libraries/presentation/lib/automaton/widgets/head/speech_bubble.dart -->
<g id="node19" class="node">
<title>/libraries/presentation/lib/automaton/widgets/head/speech_bubble.dart</title>
<path fill="Lavender" stroke="black" stroke-width="1.3" d="M2231.69,-481.24C2231.69,-481.24 2231.69,-527.14 2231.69,-527.14 2231.69,-533.14 2227.27,-543.21 2222.86,-547.27 2222.86,-547.27 2186.81,-580.45 2186.81,-580.45 2182.39,-584.51 2171.98,-588.57 2165.98,-588.57 2165.98,-588.57 2114.02,-588.57 2114.02,-588.57 2108.02,-588.57 2097.61,-584.51 2093.19,-580.45 2093.19,-580.45 2057.14,-547.27 2057.14,-547.27 2052.73,-543.21 2048.31,-533.14 2048.31,-527.14 2048.31,-527.14 2048.31,-481.24 2048.31,-481.24 2048.31,-475.24 2052.73,-465.18 2057.14,-461.11 2057.14,-461.11 2093.19,-427.94 2093.19,-427.94 2097.61,-423.87 2108.02,-419.81 2114.02,-419.81 2114.02,-419.81 2165.98,-419.81 2165.98,-419.81 2171.98,-419.81 2182.39,-423.87 2186.81,-427.94 2186.81,-427.94 2222.86,-461.11 2222.86,-461.11 2227.27,-465.18 2231.69,-475.24 2231.69,-481.24"/>
<text text-anchor="middle" x="2140" y="-543.19" font-family="Arial" font-size="15.00">speech_bubble </text>
<text text-anchor="middle" x="2140" y="-526.19" font-family="Arial" font-size="15.00"> cd: 1 </text>
<text text-anchor="middle" x="2140" y="-509.19" font-family="Arial" font-size="15.00"> inDegree: 0 </text>
<text text-anchor="middle" x="2140" y="-492.19" font-family="Arial" font-size="15.00"> outDegree: 0 </text>
<text text-anchor="middle" x="2140" y="-475.19" font-family="Arial" font-size="15.00"> instability: null </text>
<text text-anchor="middle" x="2140" y="-458.19" font-family="Arial" font-size="15.00"> sloc: 8</text>
</g>
<!-- /libraries/presentation/lib/automaton/widgets/head/thought_bubble.dart -->
<g id="node20" class="node">
<title>/libraries/presentation/lib/automaton/widgets/head/thought_bubble.dart</title>
<path fill="Lavender" stroke="black" stroke-width="1.3" d="M2030.72,-481.24C2030.72,-481.24 2030.72,-527.14 2030.72,-527.14 2030.72,-533.14 2026.28,-543.18 2021.84,-547.22 2021.84,-547.22 1985.28,-580.49 1985.28,-580.49 1980.84,-584.53 1970.41,-588.57 1964.41,-588.57 1964.41,-588.57 1911.59,-588.57 1911.59,-588.57 1905.59,-588.57 1895.16,-584.53 1890.72,-580.49 1890.72,-580.49 1854.16,-547.22 1854.16,-547.22 1849.72,-543.18 1845.28,-533.14 1845.28,-527.14 1845.28,-527.14 1845.28,-481.24 1845.28,-481.24 1845.28,-475.24 1849.72,-465.2 1854.16,-461.16 1854.16,-461.16 1890.72,-427.89 1890.72,-427.89 1895.16,-423.85 1905.59,-419.81 1911.59,-419.81 1911.59,-419.81 1964.41,-419.81 1964.41,-419.81 1970.41,-419.81 1980.84,-423.85 1985.28,-427.89 1985.28,-427.89 2021.84,-461.16 2021.84,-461.16 2026.28,-465.2 2030.72,-475.24 2030.72,-481.24"/>
<text text-anchor="middle" x="1938" y="-543.19" font-family="Arial" font-size="15.00">thought_bubble </text>
<text text-anchor="middle" x="1938" y="-526.19" font-family="Arial" font-size="15.00"> cd: 1 </text>
<text text-anchor="middle" x="1938" y="-509.19" font-family="Arial" font-size="15.00"> inDegree: 0 </text>
<text text-anchor="middle" x="1938" y="-492.19" font-family="Arial" font-size="15.00"> outDegree: 0 </text>
<text text-anchor="middle" x="1938" y="-475.19" font-family="Arial" font-size="15.00"> instability: null </text>
<text text-anchor="middle" x="1938" y="-458.19" font-family="Arial" font-size="15.00"> sloc: 8</text>
</g>
<!-- /libraries/presentation/lib/automaton/widgets/head.dart -->
<g id="node21" class="node">
<title>/libraries/presentation/lib/automaton/widgets/head.dart</title>
<path fill="Lavender" stroke="black" stroke-width="1.3" d="M1435.57,-481.24C1435.57,-481.24 1435.57,-527.14 1435.57,-527.14 1435.57,-533.14 1431.22,-543.28 1426.88,-547.42 1426.88,-547.42 1392.37,-580.29 1392.37,-580.29 1388.03,-584.43 1377.69,-588.57 1371.69,-588.57 1371.69,-588.57 1322.31,-588.57 1322.31,-588.57 1316.31,-588.57 1305.97,-584.43 1301.63,-580.29 1301.63,-580.29 1267.12,-547.42 1267.12,-547.42 1262.78,-543.28 1258.43,-533.14 1258.43,-527.14 1258.43,-527.14 1258.43,-481.24 1258.43,-481.24 1258.43,-475.24 1262.78,-465.1 1267.12,-460.96 1267.12,-460.96 1301.63,-428.09 1301.63,-428.09 1305.97,-423.95 1316.31,-419.81 1322.31,-419.81 1322.31,-419.81 1371.69,-419.81 1371.69,-419.81 1377.69,-419.81 1388.03,-423.95 1392.37,-428.09 1392.37,-428.09 1426.88,-460.96 1426.88,-460.96 1431.22,-465.1 1435.57,-475.24 1435.57,-481.24"/>
<text text-anchor="middle" x="1347" y="-543.19" font-family="Arial" font-size="15.00">head </text>
<text text-anchor="middle" x="1347" y="-526.19" font-family="Arial" font-size="15.00"> cd: 1 </text>
<text text-anchor="middle" x="1347" y="-509.19" font-family="Arial" font-size="15.00"> inDegree: 0 </text>
<text text-anchor="middle" x="1347" y="-492.19" font-family="Arial" font-size="15.00"> outDegree: 0 </text>
<text text-anchor="middle" x="1347" y="-475.19" font-family="Arial" font-size="15.00"> instability: null </text>
<text text-anchor="middle" x="1347" y="-458.19" font-family="Arial" font-size="15.00"> sloc: 8</text>
</g>
<!-- /libraries/presentation/lib/automaton/widgets/heart.dart -->
<g id="node22" class="node">
<title>/libraries/presentation/lib/automaton/widgets/heart.dart</title>
<path fill="Lavender" stroke="black" stroke-width="1.3" d="M1239.57,-481.24C1239.57,-481.24 1239.57,-527.14 1239.57,-527.14 1239.57,-533.14 1235.22,-543.28 1230.88,-547.42 1230.88,-547.42 1196.37,-580.29 1196.37,-580.29 1192.03,-584.43 1181.69,-588.57 1175.69,-588.57 1175.69,-588.57 1126.31,-588.57 1126.31,-588.57 1120.31,-588.57 1109.97,-584.43 1105.63,-580.29 1105.63,-580.29 1071.12,-547.42 1071.12,-547.42 1066.78,-543.28 1062.43,-533.14 1062.43,-527.14 1062.43,-527.14 1062.43,-481.24 1062.43,-481.24 1062.43,-475.24 1066.78,-465.1 1071.12,-460.96 1071.12,-460.96 1105.63,-428.09 1105.63,-428.09 1109.97,-423.95 1120.31,-419.81 1126.31,-419.81 1126.31,-419.81 1175.69,-419.81 1175.69,-419.81 1181.69,-419.81 1192.03,-423.95 1196.37,-428.09 1196.37,-428.09 1230.88,-460.96 1230.88,-460.96 1235.22,-465.1 1239.57,-475.24 1239.57,-481.24"/>
<text text-anchor="middle" x="1151" y="-543.19" font-family="Arial" font-size="15.00">heart </text>
<text text-anchor="middle" x="1151" y="-526.19" font-family="Arial" font-size="15.00"> cd: 1 </text>
<text text-anchor="middle" x="1151" y="-509.19" font-family="Arial" font-size="15.00"> inDegree: 0 </text>
<text text-anchor="middle" x="1151" y="-492.19" font-family="Arial" font-size="15.00"> outDegree: 0 </text>
<text text-anchor="middle" x="1151" y="-475.19" font-family="Arial" font-size="15.00"> instability: null </text>
<text text-anchor="middle" x="1151" y="-458.19" font-family="Arial" font-size="15.00"> sloc: 8</text>
</g>
<!-- /libraries/presentation/lib/automaton/widgets/hips.dart -->
<g id="node23" class="node">
<title>/libraries/presentation/lib/automaton/widgets/hips.dart</title>
<path fill="Lavender" stroke="black" stroke-width="1.3" d="M1043.57,-481.24C1043.57,-481.24 1043.57,-527.14 1043.57,-527.14 1043.57,-533.14 1039.22,-543.28 1034.88,-547.42 1034.88,-547.42 1000.37,-580.29 1000.37,-580.29 996.03,-584.43 985.69,-588.57 979.69,-588.57 979.69,-588.57 930.31,-588.57 930.31,-588.57 924.31,-588.57 913.97,-584.43 909.63,-580.29 909.63,-580.29 875.12,-547.42 875.12,-547.42 870.78,-543.28 866.43,-533.14 866.43,-527.14 866.43,-527.14 866.43,-481.24 866.43,-481.24 866.43,-475.24 870.78,-465.1 875.12,-460.96 875.12,-460.96 909.63,-428.09 909.63,-428.09 913.97,-423.95 924.31,-419.81 930.31,-419.81 930.31,-419.81 979.69,-419.81 979.69,-419.81 985.69,-419.81 996.03,-423.95 1000.37,-428.09 1000.37,-428.09 1034.88,-460.96 1034.88,-460.96 1039.22,-465.1 1043.57,-475.24 1043.57,-481.24"/>
<text text-anchor="middle" x="955" y="-543.19" font-family="Arial" font-size="15.00">hips </text>
<text text-anchor="middle" x="955" y="-526.19" font-family="Arial" font-size="15.00"> cd: 1 </text>
<text text-anchor="middle" x="955" y="-509.19" font-family="Arial" font-size="15.00"> inDegree: 0 </text>
<text text-anchor="middle" x="955" y="-492.19" font-family="Arial" font-size="15.00"> outDegree: 0 </text>
<text text-anchor="middle" x="955" y="-475.19" font-family="Arial" font-size="15.00"> instability: null </text>
<text text-anchor="middle" x="955" y="-458.19" font-family="Arial" font-size="15.00"> sloc: 8</text>
</g>
<!-- /libraries/presentation/lib/automaton/widgets/leg.dart -->
<g id="node24" class="node">
<title>/libraries/presentation/lib/automaton/widgets/leg.dart</title>
<path fill="Lavender" stroke="black" stroke-width="1.3" d="M847.57,-481.24C847.57,-481.24 847.57,-527.14 847.57,-527.14 847.57,-533.14 843.22,-543.28 838.88,-547.42 838.88,-547.42 804.37,-580.29 804.37,-580.29 800.03,-584.43 789.69,-588.57 783.69,-588.57 783.69,-588.57 734.31,-588.57 734.31,-588.57 728.31,-588.57 717.97,-584.43 713.63,-580.29 713.63,-580.29 679.12,-547.42 679.12,-547.42 674.78,-543.28 670.43,-533.14 670.43,-527.14 670.43,-527.14 670.43,-481.24 670.43,-481.24 670.43,-475.24 674.78,-465.1 679.12,-460.96 679.12,-460.96 713.63,-428.09 713.63,-428.09 717.97,-423.95 728.31,-419.81 734.31,-419.81 734.31,-419.81 783.69,-419.81 783.69,-419.81 789.69,-419.81 800.03,-423.95 804.37,-428.09 804.37,-428.09 838.88,-460.96 838.88,-460.96 843.22,-465.1 847.57,-475.24 847.57,-481.24"/>
<text text-anchor="middle" x="759" y="-543.19" font-family="Arial" font-size="15.00">leg </text>
<text text-anchor="middle" x="759" y="-526.19" font-family="Arial" font-size="15.00"> cd: 1 </text>
<text text-anchor="middle" x="759" y="-509.19" font-family="Arial" font-size="15.00"> inDegree: 0 </text>
<text text-anchor="middle" x="759" y="-492.19" font-family="Arial" font-size="15.00"> outDegree: 0 </text>
<text text-anchor="middle" x="759" y="-475.19" font-family="Arial" font-size="15.00"> instability: null </text>
<text text-anchor="middle" x="759" y="-458.19" font-family="Arial" font-size="15.00"> sloc: 8</text>
</g>
<!-- /libraries/presentation/lib/automaton/widgets/neck.dart -->
<g id="node25" class="node">
<title>/libraries/presentation/lib/automaton/widgets/neck.dart</title>
<path fill="Lavender" stroke="black" stroke-width="1.3" d="M651.57,-481.24C651.57,-481.24 651.57,-527.14 651.57,-527.14 651.57,-533.14 647.22,-543.28 642.88,-547.42 642.88,-547.42 608.37,-580.29 608.37,-580.29 604.03,-584.43 593.69,-588.57 587.69,-588.57 587.69,-588.57 538.31,-588.57 538.31,-588.57 532.31,-588.57 521.97,-584.43 517.63,-580.29 517.63,-580.29 483.12,-547.42 483.12,-547.42 478.78,-543.28 474.43,-533.14 474.43,-527.14 474.43,-527.14 474.43,-481.24 474.43,-481.24 474.43,-475.24 478.78,-465.1 483.12,-460.96 483.12,-460.96 517.63,-428.09 517.63,-428.09 521.97,-423.95 532.31,-419.81 538.31,-419.81 538.31,-419.81 587.69,-419.81 587.69,-419.81 593.69,-419.81 604.03,-423.95 608.37,-428.09 608.37,-428.09 642.88,-460.96 642.88,-460.96 647.22,-465.1 651.57,-475.24 651.57,-481.24"/>
<text text-anchor="middle" x="563" y="-543.19" font-family="Arial" font-size="15.00">neck </text>
<text text-anchor="middle" x="563" y="-526.19" font-family="Arial" font-size="15.00"> cd: 1 </text>
<text text-anchor="middle" x="563" y="-509.19" font-family="Arial" font-size="15.00"> inDegree: 0 </text>
<text text-anchor="middle" x="563" y="-492.19" font-family="Arial" font-size="15.00"> outDegree: 0 </text>
<text text-anchor="middle" x="563" y="-475.19" font-family="Arial" font-size="15.00"> instability: null </text>
<text text-anchor="middle" x="563" y="-458.19" font-family="Arial" font-size="15.00"> sloc: 8</text>
</g>
<!-- /libraries/presentation/lib/automaton/widgets/status_connector.dart -->
<g id="node26" class="node">
<title>/libraries/presentation/lib/automaton/widgets/status_connector.dart</title>
<path fill="Lavender" stroke="black" stroke-width="1.3" d="M456.62,-481.24C456.62,-481.24 456.62,-527.14 456.62,-527.14 456.62,-533.14 451.98,-542.95 447.35,-546.76 447.35,-546.76 405.77,-580.95 405.77,-580.95 401.14,-584.76 390.51,-588.57 384.51,-588.57 384.51,-588.57 323.49,-588.57 323.49,-588.57 317.49,-588.57 306.86,-584.76 302.23,-580.95 302.23,-580.95 260.65,-546.76 260.65,-546.76 256.02,-542.95 251.38,-533.14 251.38,-527.14 251.38,-527.14 251.38,-481.24 251.38,-481.24 251.38,-475.24 256.02,-465.43 260.65,-461.62 260.65,-461.62 302.23,-427.43 302.23,-427.43 306.86,-423.62 317.49,-419.81 323.49,-419.81 323.49,-419.81 384.51,-419.81 384.51,-419.81 390.51,-419.81 401.14,-423.62 405.77,-427.43 405.77,-427.43 447.35,-461.62 447.35,-461.62 451.98,-465.43 456.62,-475.24 456.62,-481.24"/>
<text text-anchor="middle" x="354" y="-543.19" font-family="Arial" font-size="15.00">status_connector </text>
<text text-anchor="middle" x="354" y="-526.19" font-family="Arial" font-size="15.00"> cd: 1 </text>
<text text-anchor="middle" x="354" y="-509.19" font-family="Arial" font-size="15.00"> inDegree: 0 </text>
<text text-anchor="middle" x="354" y="-492.19" font-family="Arial" font-size="15.00"> outDegree: 0 </text>
<text text-anchor="middle" x="354" y="-475.19" font-family="Arial" font-size="15.00"> instability: null </text>
<text text-anchor="middle" x="354" y="-458.19" font-family="Arial" font-size="15.00"> sloc: 8</text>
</g>
<!-- /libraries/presentation/lib/automaton/widgets/torso.dart -->
<g id="node27" class="node">
<title>/libraries/presentation/lib/automaton/widgets/torso.dart</title>
<path fill="Lavender" stroke="black" stroke-width="1.3" d="M233.57,-481.24C233.57,-481.24 233.57,-527.14 233.57,-527.14 233.57,-533.14 229.22,-543.28 224.88,-547.42 224.88,-547.42 190.37,-580.29 190.37,-580.29 186.03,-584.43 175.69,-588.57 169.69,-588.57 169.69,-588.57 120.31,-588.57 120.31,-588.57 114.31,-588.57 103.97,-584.43 99.63,-580.29 99.63,-580.29 65.12,-547.42 65.12,-547.42 60.78,-543.28 56.43,-533.14 56.43,-527.14 56.43,-527.14 56.43,-481.24 56.43,-481.24 56.43,-475.24 60.78,-465.1 65.12,-460.96 65.12,-460.96 99.63,-428.09 99.63,-428.09 103.97,-423.95 114.31,-419.81 120.31,-419.81 120.31,-419.81 169.69,-419.81 169.69,-419.81 175.69,-419.81 186.03,-423.95 190.37,-428.09 190.37,-428.09 224.88,-460.96 224.88,-460.96 229.22,-465.1 233.57,-475.24 233.57,-481.24"/>
<text text-anchor="middle" x="145" y="-543.19" font-family="Arial" font-size="15.00">torso </text>
<text text-anchor="middle" x="145" y="-526.19" font-family="Arial" font-size="15.00"> cd: 1 </text>
<text text-anchor="middle" x="145" y="-509.19" font-family="Arial" font-size="15.00"> inDegree: 0 </text>
<text text-anchor="middle" x="145" y="-492.19" font-family="Arial" font-size="15.00"> outDegree: 0 </text>
<text text-anchor="middle" x="145" y="-475.19" font-family="Arial" font-size="15.00"> instability: null </text>
<text text-anchor="middle" x="145" y="-458.19" font-family="Arial" font-size="15.00"> sloc: 8</text>
</g>
<!-- metrics -->
<g id="node28" class="node">
<title>metrics</title>
<path fill="Lavender" stroke="black" stroke-width="1.3" d="M5207,-593.19C5207,-593.19 5095,-593.19 5095,-593.19 5089,-593.19 5083,-587.19 5083,-581.19 5083,-581.19 5083,-427.19 5083,-427.19 5083,-421.19 5089,-415.19 5095,-415.19 5095,-415.19 5207,-415.19 5207,-415.19 5213,-415.19 5219,-421.19 5219,-427.19 5219,-427.19 5219,-581.19 5219,-581.19 5219,-587.19 5213,-593.19 5207,-593.19"/>
<text text-anchor="start" x="5091" y="-577.19" font-family="Arial" font-size="15.00"> isAcyclic: false </text>
<text text-anchor="start" x="5091" y="-560.19" font-family="Arial" font-size="15.00"> numNodes: 27 &#160;</text>
<text text-anchor="start" x="5091" y="-543.19" font-family="Arial" font-size="15.00"> numEdges: 6 &#160;</text>
<text text-anchor="start" x="5091" y="-526.19" font-family="Arial" font-size="15.00"> avgDegree: 0.22 </text>
<text text-anchor="start" x="5091" y="-509.19" font-family="Arial" font-size="15.00"> numOrphans: 21 </text>
<text text-anchor="start" x="5091" y="-492.19" font-family="Arial" font-size="15.00"> ccd: 34 </text>
<text text-anchor="start" x="5091" y="-475.19" font-family="Arial" font-size="15.00"> acd: 1.26 </text>
<text text-anchor="start" x="5091" y="-458.19" font-family="Arial" font-size="15.00"> nccd: 0.32 </text>
<text text-anchor="start" x="5091" y="-441.19" font-family="Arial" font-size="15.00"> totalSloc: 186 </text>
<text text-anchor="start" x="5091" y="-424.19" font-family="Arial" font-size="15.00"> avgSloc: 6.89 </text>
</g>
</g>
</svg>
