<?xml version="1.0" encoding="UTF-8" standalone="no"?>
<!DOCTYPE svg PUBLIC "-//W3C//DTD SVG 1.1//EN"
 "http://www.w3.org/Graphics/SVG/1.1/DTD/svg11.dtd">
<!-- Generated by graphviz version 7.1.0 (20230121.1956)
 -->
<!-- Pages: 1 -->
<svg width="362pt" height="268pt"
 viewBox="0.00 0.00 362.00 268.38" xmlns="http://www.w3.org/2000/svg" xmlns:xlink="http://www.w3.org/1999/xlink">
<g id="graph0" class="graph" transform="scale(1 1) rotate(0) translate(4 264.38)">
<polygon fill="white" stroke="none" points="-4,4 -4,-264.38 358,-264.38 358,4 -4,4"/>
<g id="clust1" class="cluster">
<title>cluster~</title>
<path fill="none" stroke="black" stroke-width="2.6" d="M20,-8C20,-8 206,-8 206,-8 212,-8 218,-14 218,-20 218,-20 218,-240.38 218,-240.38 218,-246.38 212,-252.38 206,-252.38 206,-252.38 20,-252.38 20,-252.38 14,-252.38 8,-246.38 8,-240.38 8,-240.38 8,-20 8,-20 8,-14 14,-8 20,-8"/>
<text text-anchor="middle" x="113" y="-237.98" font-family="Arial Black" font-size="13.00">flutter_automaton</text>
</g>
<g id="clust2" class="cluster">
<title>cluster~/lib</title>
<path fill="none" stroke="black" stroke-width="2.6" d="M28,-16C28,-16 198,-16 198,-16 204,-16 210,-22 210,-28 210,-28 210,-210.38 210,-210.38 210,-216.38 204,-222.38 198,-222.38 198,-222.38 28,-222.38 28,-222.38 22,-222.38 16,-216.38 16,-210.38 16,-210.38 16,-28 16,-28 16,-22 22,-16 28,-16"/>
<text text-anchor="middle" x="113" y="-207.98" font-family="Arial Black" font-size="13.00">lib</text>
</g>
<!-- /lib/main.dart -->
<g id="node1" class="node">
<title>/lib/main.dart</title>
<path fill="Lavender" stroke="black" stroke-width="1.3" d="M201.57,-85.24C201.57,-85.24 201.57,-131.14 201.57,-131.14 201.57,-137.14 197.22,-147.28 192.88,-151.42 192.88,-151.42 158.37,-184.29 158.37,-184.29 154.03,-188.43 143.69,-192.57 137.69,-192.57 137.69,-192.57 88.31,-192.57 88.31,-192.57 82.31,-192.57 71.97,-188.43 67.63,-184.29 67.63,-184.29 33.12,-151.42 33.12,-151.42 28.78,-147.28 24.43,-137.14 24.43,-131.14 24.43,-131.14 24.43,-85.24 24.43,-85.24 24.43,-79.24 28.78,-69.1 33.12,-64.96 33.12,-64.96 67.63,-32.09 67.63,-32.09 71.97,-27.95 82.31,-23.81 88.31,-23.81 88.31,-23.81 137.69,-23.81 137.69,-23.81 143.69,-23.81 154.03,-27.95 158.37,-32.09 158.37,-32.09 192.88,-64.96 192.88,-64.96 197.22,-69.1 201.57,-79.24 201.57,-85.24"/>
<text text-anchor="middle" x="113" y="-147.19" font-family="Arial" font-size="15.00">main </text>
<text text-anchor="middle" x="113" y="-130.19" font-family="Arial" font-size="15.00"> cd: 1 </text>
<text text-anchor="middle" x="113" y="-113.19" font-family="Arial" font-size="15.00"> inDegree: 0 </text>
<text text-anchor="middle" x="113" y="-96.19" font-family="Arial" font-size="15.00"> outDegree: 0 </text>
<text text-anchor="middle" x="113" y="-79.19" font-family="Arial" font-size="15.00"> instability: null </text>
<text text-anchor="middle" x="113" y="-62.19" font-family="Arial" font-size="15.00"> sloc: 4</text>
</g>
<!-- metrics -->
<g id="node2" class="node">
<title>metrics</title>
<path fill="Lavender" stroke="black" stroke-width="1.3" d="M342,-197.19C342,-197.19 238,-197.19 238,-197.19 232,-197.19 226,-191.19 226,-185.19 226,-185.19 226,-31.19 226,-31.19 226,-25.19 232,-19.19 238,-19.19 238,-19.19 342,-19.19 342,-19.19 348,-19.19 354,-25.19 354,-31.19 354,-31.19 354,-185.19 354,-185.19 354,-191.19 348,-197.19 342,-197.19"/>
<text text-anchor="start" x="234" y="-181.19" font-family="Arial" font-size="15.00"> isAcyclic: true </text>
<text text-anchor="start" x="234" y="-164.19" font-family="Arial" font-size="15.00"> numNodes: 1 &#160;</text>
<text text-anchor="start" x="234" y="-147.19" font-family="Arial" font-size="15.00"> numEdges: 0 &#160;</text>
<text text-anchor="start" x="234" y="-130.19" font-family="Arial" font-size="15.00"> avgDegree: 0.0 </text>
<text text-anchor="start" x="234" y="-113.19" font-family="Arial" font-size="15.00"> numOrphans: 1 </text>
<text text-anchor="start" x="234" y="-96.19" font-family="Arial" font-size="15.00"> ccd: 1 </text>
<text text-anchor="start" x="234" y="-79.19" font-family="Arial" font-size="15.00"> acd: 1.0 </text>
<text text-anchor="start" x="234" y="-62.19" font-family="Arial" font-size="15.00"> nccd: 1.0 </text>
<text text-anchor="start" x="234" y="-45.19" font-family="Arial" font-size="15.00"> totalSloc: 4 </text>
<text text-anchor="start" x="234" y="-28.19" font-family="Arial" font-size="15.00"> avgSloc: 4.0 </text>
</g>
</g>
</svg>
